<svg width="966" height="428" viewBox="0 0 966 428" fill="none" xmlns="http://www.w3.org/2000/svg">
<rect width="966" height="428" rx="16" fill="#42032C"/>
<rect x="321" y="287" width="368" height="50" rx="8" fill="url(#paint0_linear_16_936)" fill-opacity="0.5"/>
<rect x="389" y="268" width="34" height="13" rx="6.5" fill="#6E62FF" fill-opacity="0.65"/>
<path d="M335.136 309V300.376H332.416V299.016H339.536V300.376H336.688V309H335.136ZM340.976 298.296H342.544H342.704V298.44C342.64 298.504 342.597 298.573 342.576 298.648C342.565 298.723 342.56 298.851 342.56 299.032V302.68C342.741 302.413 342.955 302.189 343.2 302.008C343.456 301.816 343.717 301.672 343.984 301.576C344.261 301.469 344.539 301.416 344.816 301.416C345.285 301.416 345.691 301.523 346.032 301.736C346.384 301.949 346.656 302.285 346.848 302.744C347.04 303.192 347.136 303.789 347.136 304.536V309H345.568V304.552C345.568 304.093 345.52 303.731 345.424 303.464C345.328 303.187 345.195 302.989 345.024 302.872C344.853 302.744 344.651 302.68 344.416 302.68C344.224 302.68 344.037 302.712 343.856 302.776C343.685 302.84 343.52 302.931 343.36 303.048C343.2 303.155 343.061 303.293 342.944 303.464C342.827 303.635 342.731 303.827 342.656 304.04C342.592 304.253 342.56 304.488 342.56 304.744V309H340.976V298.296ZM349.44 309V307.736H351.28V302.856H349.52V301.592H352.88V307.736H354.56V309H349.44ZM351.984 300.264C351.696 300.264 351.451 300.168 351.248 299.976C351.056 299.773 350.96 299.539 350.96 299.272C350.96 298.984 351.056 298.744 351.248 298.552C351.44 298.36 351.685 298.264 351.984 298.264C352.261 298.264 352.501 298.365 352.704 298.568C352.917 298.771 353.024 299.005 353.024 299.272C353.024 299.539 352.917 299.773 352.704 299.976C352.501 300.168 352.261 300.264 351.984 300.264ZM360.112 309.176C359.664 309.176 359.243 309.133 358.848 309.048C358.453 308.963 358.08 308.835 357.728 308.664C357.387 308.493 357.072 308.275 356.784 308.008L357.52 306.664L357.616 306.52L357.728 306.584C357.749 306.669 357.776 306.76 357.808 306.856C357.84 306.941 357.915 307.048 358.032 307.176C358.288 307.4 358.581 307.581 358.912 307.72C359.243 307.848 359.648 307.912 360.128 307.912C360.459 307.912 360.736 307.875 360.96 307.8C361.195 307.715 361.376 307.603 361.504 307.464C361.632 307.315 361.696 307.149 361.696 306.968C361.696 306.829 361.659 306.712 361.584 306.616C361.52 306.509 361.419 306.413 361.28 306.328C361.141 306.232 360.96 306.141 360.736 306.056C360.512 305.96 360.24 305.869 359.92 305.784C359.376 305.624 358.901 305.443 358.496 305.24C358.091 305.027 357.776 304.776 357.552 304.488C357.328 304.2 357.216 303.859 357.216 303.464C357.216 303.069 357.328 302.723 357.552 302.424C357.787 302.115 358.117 301.869 358.544 301.688C358.971 301.507 359.477 301.416 360.064 301.416C360.384 301.416 360.683 301.443 360.96 301.496C361.248 301.539 361.509 301.608 361.744 301.704C361.989 301.8 362.219 301.923 362.432 302.072C362.645 302.211 362.848 302.376 363.04 302.568L362.224 303.656L362.128 303.784L362.016 303.688C362.005 303.603 361.979 303.523 361.936 303.448C361.904 303.373 361.829 303.277 361.712 303.16C361.477 302.989 361.221 302.861 360.944 302.776C360.667 302.691 360.384 302.648 360.096 302.648C359.723 302.648 359.392 302.712 359.104 302.84C358.827 302.968 358.688 303.16 358.688 303.416C358.688 303.565 358.747 303.704 358.864 303.832C358.992 303.96 359.195 304.088 359.472 304.216C359.749 304.333 360.128 304.456 360.608 304.584C361.216 304.744 361.707 304.931 362.08 305.144C362.453 305.347 362.725 305.587 362.896 305.864C363.077 306.141 363.168 306.467 363.168 306.84C363.168 307.256 363.051 307.645 362.816 308.008C362.592 308.36 362.251 308.643 361.792 308.856C361.333 309.069 360.773 309.176 360.112 309.176ZM373.44 309V307.736H375.28V302.856H373.52V301.592H376.88V307.736H378.56V309H373.44ZM375.984 300.264C375.696 300.264 375.451 300.168 375.248 299.976C375.056 299.773 374.96 299.539 374.96 299.272C374.96 298.984 375.056 298.744 375.248 298.552C375.44 298.36 375.685 298.264 375.984 298.264C376.261 298.264 376.501 298.365 376.704 298.568C376.917 298.771 377.024 299.005 377.024 299.272C377.024 299.539 376.917 299.773 376.704 299.976C376.501 300.168 376.261 300.264 375.984 300.264ZM384.112 309.176C383.664 309.176 383.243 309.133 382.848 309.048C382.453 308.963 382.08 308.835 381.728 308.664C381.387 308.493 381.072 308.275 380.784 308.008L381.52 306.664L381.616 306.52L381.728 306.584C381.749 306.669 381.776 306.76 381.808 306.856C381.84 306.941 381.915 307.048 382.032 307.176C382.288 307.4 382.581 307.581 382.912 307.72C383.243 307.848 383.648 307.912 384.128 307.912C384.459 307.912 384.736 307.875 384.96 307.8C385.195 307.715 385.376 307.603 385.504 307.464C385.632 307.315 385.696 307.149 385.696 306.968C385.696 306.829 385.659 306.712 385.584 306.616C385.52 306.509 385.419 306.413 385.28 306.328C385.141 306.232 384.96 306.141 384.736 306.056C384.512 305.96 384.24 305.869 383.92 305.784C383.376 305.624 382.901 305.443 382.496 305.24C382.091 305.027 381.776 304.776 381.552 304.488C381.328 304.2 381.216 303.859 381.216 303.464C381.216 303.069 381.328 302.723 381.552 302.424C381.787 302.115 382.117 301.869 382.544 301.688C382.971 301.507 383.477 301.416 384.064 301.416C384.384 301.416 384.683 301.443 384.96 301.496C385.248 301.539 385.509 301.608 385.744 301.704C385.989 301.8 386.219 301.923 386.432 302.072C386.645 302.211 386.848 302.376 387.04 302.568L386.224 303.656L386.128 303.784L386.016 303.688C386.005 303.603 385.979 303.523 385.936 303.448C385.904 303.373 385.829 303.277 385.712 303.16C385.477 302.989 385.221 302.861 384.944 302.776C384.667 302.691 384.384 302.648 384.096 302.648C383.723 302.648 383.392 302.712 383.104 302.84C382.827 302.968 382.688 303.16 382.688 303.416C382.688 303.565 382.747 303.704 382.864 303.832C382.992 303.96 383.195 304.088 383.472 304.216C383.749 304.333 384.128 304.456 384.608 304.584C385.216 304.744 385.707 304.931 386.08 305.144C386.453 305.347 386.725 305.587 386.896 305.864C387.077 306.141 387.168 306.467 387.168 306.84C387.168 307.256 387.051 307.645 386.816 308.008C386.592 308.36 386.251 308.643 385.792 308.856C385.333 309.069 384.773 309.176 384.112 309.176ZM399.232 309.176C398.411 309.176 397.771 308.989 397.312 308.616C396.864 308.232 396.64 307.736 396.64 307.128C396.64 306.723 396.731 306.36 396.912 306.04C397.104 305.709 397.371 305.427 397.712 305.192C398.064 304.957 398.485 304.776 398.976 304.648C399.467 304.509 400.021 304.44 400.64 304.44C400.768 304.44 400.901 304.445 401.04 304.456C401.189 304.456 401.344 304.461 401.504 304.472C401.675 304.483 401.845 304.493 402.016 304.504L402.064 305.64C401.915 305.619 401.755 305.603 401.584 305.592C401.424 305.581 401.264 305.576 401.104 305.576C400.944 305.576 400.795 305.576 400.656 305.576C400.24 305.576 399.877 305.608 399.568 305.672C399.269 305.725 399.019 305.811 398.816 305.928C398.624 306.045 398.48 306.189 398.384 306.36C398.288 306.531 398.24 306.728 398.24 306.952C398.24 307.133 398.272 307.293 398.336 307.432C398.4 307.56 398.485 307.661 398.592 307.736C398.709 307.811 398.843 307.869 398.992 307.912C399.152 307.944 399.323 307.96 399.504 307.96C399.856 307.96 400.165 307.901 400.432 307.784C400.699 307.667 400.923 307.496 401.104 307.272C401.296 307.037 401.44 306.749 401.536 306.408C401.632 306.056 401.68 305.645 401.68 305.176C401.68 304.525 401.605 304.019 401.456 303.656C401.317 303.293 401.109 303.043 400.832 302.904C400.555 302.765 400.208 302.696 399.792 302.696C399.451 302.696 399.12 302.755 398.8 302.872C398.491 302.979 398.187 303.181 397.888 303.48L397.04 302.52C397.445 302.136 397.888 301.859 398.368 301.688C398.859 301.517 399.36 301.432 399.872 301.432C400.341 301.432 400.773 301.491 401.168 301.608C401.573 301.715 401.925 301.896 402.224 302.152C402.533 302.408 402.768 302.755 402.928 303.192C403.099 303.629 403.184 304.184 403.184 304.856V309H401.52V308.088C401.381 308.301 401.227 308.483 401.056 308.632C400.885 308.771 400.699 308.883 400.496 308.968C400.304 309.043 400.101 309.096 399.888 309.128C399.675 309.16 399.456 309.176 399.232 309.176ZM415.648 309.176C415.253 309.176 414.869 309.096 414.496 308.936C414.133 308.765 413.808 308.52 413.52 308.2C413.232 307.88 413.003 307.475 412.832 306.984C412.672 306.483 412.592 305.907 412.592 305.256C412.592 304.595 412.672 304.024 412.832 303.544C413.003 303.064 413.232 302.669 413.52 302.36C413.808 302.04 414.139 301.805 414.512 301.656C414.885 301.496 415.275 301.416 415.68 301.416C415.968 301.416 416.229 301.453 416.464 301.528C416.709 301.603 416.928 301.715 417.12 301.864C417.312 302.013 417.467 302.2 417.584 302.424V298.296H419.136H419.28V298.44C419.227 298.504 419.189 298.573 419.168 298.648C419.147 298.723 419.141 298.851 419.152 299.032V307.96C419.152 308.131 419.157 308.307 419.168 308.488C419.189 308.659 419.237 308.829 419.312 309H417.744C417.691 308.883 417.653 308.776 417.632 308.68C417.611 308.584 417.6 308.488 417.6 308.392C417.6 308.296 417.6 308.195 417.6 308.088C417.451 308.312 417.28 308.509 417.088 308.68C416.896 308.84 416.677 308.963 416.432 309.048C416.187 309.133 415.925 309.176 415.648 309.176ZM415.92 307.864C416.208 307.864 416.453 307.805 416.656 307.688C416.859 307.571 417.024 307.4 417.152 307.176C417.28 306.952 417.376 306.68 417.44 306.36C417.504 306.04 417.536 305.677 417.536 305.272C417.536 304.728 417.477 304.264 417.36 303.88C417.243 303.485 417.056 303.187 416.8 302.984C416.555 302.771 416.24 302.664 415.856 302.664C415.579 302.664 415.333 302.723 415.12 302.84C414.907 302.957 414.725 303.128 414.576 303.352C414.437 303.565 414.331 303.827 414.256 304.136C414.181 304.445 414.144 304.792 414.144 305.176C414.144 305.72 414.219 306.195 414.368 306.6C414.528 307.005 414.741 307.32 415.008 307.544C415.275 307.757 415.579 307.864 415.92 307.864ZM424.336 309.176C423.803 309.176 423.312 309.091 422.864 308.92C422.416 308.749 422.027 308.504 421.696 308.184C421.376 307.853 421.125 307.448 420.944 306.968C420.763 306.488 420.672 305.944 420.672 305.336C420.672 304.717 420.763 304.168 420.944 303.688C421.125 303.197 421.371 302.787 421.68 302.456C422 302.125 422.368 301.869 422.784 301.688C423.211 301.507 423.664 301.416 424.144 301.416C424.56 301.416 424.955 301.491 425.328 301.64C425.712 301.789 426.043 302.013 426.32 302.312C426.608 302.6 426.832 302.968 426.992 303.416C427.163 303.864 427.248 304.387 427.248 304.984C427.248 305.091 427.248 305.213 427.248 305.352C427.248 305.48 427.243 305.592 427.232 305.688H422.208C422.229 306.072 422.304 306.408 422.432 306.696C422.56 306.973 422.72 307.203 422.912 307.384C423.115 307.565 423.344 307.699 423.6 307.784C423.856 307.869 424.123 307.912 424.4 307.912C424.645 307.912 424.869 307.891 425.072 307.848C425.285 307.795 425.488 307.715 425.68 307.608C425.872 307.501 426.048 307.357 426.208 307.176L427.04 307.992C426.816 308.259 426.565 308.483 426.288 308.664C426.011 308.835 425.707 308.963 425.376 309.048C425.056 309.133 424.709 309.176 424.336 309.176ZM422.24 304.488H425.696C425.696 304.189 425.659 303.928 425.584 303.704C425.509 303.48 425.397 303.288 425.248 303.128C425.109 302.968 424.939 302.851 424.736 302.776C424.533 302.691 424.309 302.648 424.064 302.648C423.829 302.648 423.611 302.685 423.408 302.76C423.216 302.835 423.04 302.947 422.88 303.096C422.72 303.245 422.581 303.437 422.464 303.672C422.357 303.896 422.283 304.168 422.24 304.488ZM428.528 309V301.592H429.888V302.2C430.005 302.029 430.133 301.891 430.272 301.784C430.421 301.667 430.576 301.576 430.736 301.512C430.907 301.448 431.077 301.416 431.248 301.416C431.44 301.416 431.621 301.453 431.792 301.528C431.963 301.603 432.112 301.709 432.24 301.848C432.368 301.987 432.464 302.168 432.528 302.392C432.635 302.179 432.763 302.003 432.912 301.864C433.072 301.725 433.253 301.619 433.456 301.544C433.669 301.459 433.893 301.416 434.128 301.416C434.384 301.416 434.603 301.469 434.784 301.576C434.976 301.672 435.131 301.811 435.248 301.992C435.376 302.163 435.467 302.376 435.52 302.632C435.584 302.877 435.611 303.155 435.6 303.464V309H434.208V303.88C434.208 303.507 434.187 303.229 434.144 303.048C434.101 302.867 434.037 302.744 433.952 302.68C433.877 302.616 433.787 302.584 433.68 302.584C433.52 302.584 433.365 302.659 433.216 302.808C433.077 302.947 432.96 303.139 432.864 303.384C432.779 303.629 432.736 303.901 432.736 304.2V309H431.392V303.944C431.392 303.389 431.344 303.021 431.248 302.84C431.163 302.659 431.008 302.568 430.784 302.568C430.677 302.568 430.571 302.605 430.464 302.68C430.368 302.744 430.277 302.845 430.192 302.984C430.107 303.112 430.037 303.272 429.984 303.464C429.941 303.656 429.92 303.88 429.92 304.136V309H428.528ZM440 309.16C439.328 309.16 438.731 309 438.208 308.68C437.685 308.349 437.269 307.896 436.96 307.32C436.651 306.733 436.496 306.061 436.496 305.304C436.496 304.557 436.651 303.896 436.96 303.32C437.269 302.733 437.685 302.275 438.208 301.944C438.731 301.603 439.328 301.432 440 301.432C440.661 301.432 441.253 301.603 441.776 301.944C442.309 302.275 442.731 302.733 443.04 303.32C443.349 303.896 443.504 304.557 443.504 305.304C443.504 306.051 443.349 306.717 443.04 307.304C442.731 307.88 442.309 308.333 441.776 308.664C441.253 308.995 440.661 309.16 440 309.16ZM440 307.864C440.363 307.864 440.683 307.757 440.96 307.544C441.248 307.32 441.472 307.016 441.632 306.632C441.792 306.248 441.872 305.8 441.872 305.288C441.872 304.765 441.792 304.312 441.632 303.928C441.472 303.544 441.248 303.245 440.96 303.032C440.683 302.819 440.363 302.712 440 302.712C439.637 302.712 439.312 302.819 439.024 303.032C438.747 303.245 438.528 303.544 438.368 303.928C438.208 304.312 438.128 304.765 438.128 305.288C438.128 305.8 438.208 306.248 438.368 306.632C438.528 307.016 438.747 307.32 439.024 307.544C439.312 307.757 439.637 307.864 440 307.864ZM456 309.16C455.328 309.16 454.731 309 454.208 308.68C453.685 308.349 453.269 307.896 452.96 307.32C452.651 306.733 452.496 306.061 452.496 305.304C452.496 304.557 452.651 303.896 452.96 303.32C453.269 302.733 453.685 302.275 454.208 301.944C454.731 301.603 455.328 301.432 456 301.432C456.661 301.432 457.253 301.603 457.776 301.944C458.309 302.275 458.731 302.733 459.04 303.32C459.349 303.896 459.504 304.557 459.504 305.304C459.504 306.051 459.349 306.717 459.04 307.304C458.731 307.88 458.309 308.333 457.776 308.664C457.253 308.995 456.661 309.16 456 309.16ZM456 307.864C456.363 307.864 456.683 307.757 456.96 307.544C457.248 307.32 457.472 307.016 457.632 306.632C457.792 306.248 457.872 305.8 457.872 305.288C457.872 304.765 457.792 304.312 457.632 303.928C457.472 303.544 457.248 303.245 456.96 303.032C456.683 302.819 456.363 302.712 456 302.712C455.637 302.712 455.312 302.819 455.024 303.032C454.747 303.245 454.528 303.544 454.368 303.928C454.208 304.312 454.128 304.765 454.128 305.288C454.128 305.8 454.208 306.248 454.368 306.632C454.528 307.016 454.747 307.32 455.024 307.544C455.312 307.757 455.637 307.864 456 307.864ZM462.336 302.856H460.752V301.592H462.336V301.096C462.336 300.435 462.469 299.891 462.736 299.464C463.013 299.027 463.376 298.707 463.824 298.504C464.272 298.291 464.763 298.184 465.296 298.184C465.787 298.184 466.24 298.269 466.656 298.44C467.072 298.611 467.429 298.867 467.728 299.208L467.056 300.312L466.976 300.44L466.864 300.376C466.843 300.291 466.811 300.205 466.768 300.12C466.736 300.035 466.656 299.933 466.528 299.816C466.347 299.677 466.171 299.581 466 299.528C465.829 299.475 465.621 299.448 465.376 299.448C465.077 299.448 464.816 299.507 464.592 299.624C464.379 299.731 464.208 299.907 464.08 300.152C463.963 300.387 463.904 300.701 463.904 301.096V301.592H466.208V302.856H463.904V309H462.336V302.856ZM476.736 309.016V299.032H479.216C479.803 299.032 480.293 299.085 480.688 299.192C481.093 299.299 481.435 299.453 481.712 299.656C482 299.859 482.251 300.109 482.464 300.408C482.688 300.707 482.875 301.043 483.024 301.416C483.184 301.789 483.301 302.2 483.376 302.648C483.451 303.085 483.488 303.56 483.488 304.072C483.477 304.84 483.381 305.528 483.2 306.136C483.029 306.744 482.763 307.261 482.4 307.688C482.048 308.115 481.595 308.445 481.04 308.68C480.485 308.904 479.813 309.016 479.024 309.016H476.736ZM478.256 307.768H478.992C479.707 307.768 480.277 307.624 480.704 307.336C481.141 307.037 481.456 306.616 481.648 306.072C481.851 305.517 481.952 304.867 481.952 304.12C481.952 303.331 481.861 302.653 481.68 302.088C481.499 301.523 481.205 301.085 480.8 300.776C480.405 300.456 479.856 300.296 479.152 300.296H478.256V307.768ZM485.44 309V307.736H487.28V302.856H485.52V301.592H488.88V307.736H490.56V309H485.44ZM487.984 300.264C487.696 300.264 487.451 300.168 487.248 299.976C487.056 299.773 486.96 299.539 486.96 299.272C486.96 298.984 487.056 298.744 487.248 298.552C487.44 298.36 487.685 298.264 487.984 298.264C488.261 298.264 488.501 298.365 488.704 298.568C488.917 298.771 489.024 299.005 489.024 299.272C489.024 299.539 488.917 299.773 488.704 299.976C488.501 300.168 488.261 300.264 487.984 300.264ZM496.112 309.176C495.664 309.176 495.243 309.133 494.848 309.048C494.453 308.963 494.08 308.835 493.728 308.664C493.387 308.493 493.072 308.275 492.784 308.008L493.52 306.664L493.616 306.52L493.728 306.584C493.749 306.669 493.776 306.76 493.808 306.856C493.84 306.941 493.915 307.048 494.032 307.176C494.288 307.4 494.581 307.581 494.912 307.72C495.243 307.848 495.648 307.912 496.128 307.912C496.459 307.912 496.736 307.875 496.96 307.8C497.195 307.715 497.376 307.603 497.504 307.464C497.632 307.315 497.696 307.149 497.696 306.968C497.696 306.829 497.659 306.712 497.584 306.616C497.52 306.509 497.419 306.413 497.28 306.328C497.141 306.232 496.96 306.141 496.736 306.056C496.512 305.96 496.24 305.869 495.92 305.784C495.376 305.624 494.901 305.443 494.496 305.24C494.091 305.027 493.776 304.776 493.552 304.488C493.328 304.2 493.216 303.859 493.216 303.464C493.216 303.069 493.328 302.723 493.552 302.424C493.787 302.115 494.117 301.869 494.544 301.688C494.971 301.507 495.477 301.416 496.064 301.416C496.384 301.416 496.683 301.443 496.96 301.496C497.248 301.539 497.509 301.608 497.744 301.704C497.989 301.8 498.219 301.923 498.432 302.072C498.645 302.211 498.848 302.376 499.04 302.568L498.224 303.656L498.128 303.784L498.016 303.688C498.005 303.603 497.979 303.523 497.936 303.448C497.904 303.373 497.829 303.277 497.712 303.16C497.477 302.989 497.221 302.861 496.944 302.776C496.667 302.691 496.384 302.648 496.096 302.648C495.723 302.648 495.392 302.712 495.104 302.84C494.827 302.968 494.688 303.16 494.688 303.416C494.688 303.565 494.747 303.704 494.864 303.832C494.992 303.96 495.195 304.088 495.472 304.216C495.749 304.333 496.128 304.456 496.608 304.584C497.216 304.744 497.707 304.931 498.08 305.144C498.453 305.347 498.725 305.587 498.896 305.864C499.077 306.141 499.168 306.467 499.168 306.84C499.168 307.256 499.051 307.645 498.816 308.008C498.592 308.36 498.251 308.643 497.792 308.856C497.333 309.069 496.773 309.176 496.112 309.176ZM504.496 309.176C503.952 309.176 503.445 309.085 502.976 308.904C502.517 308.712 502.117 308.445 501.776 308.104C501.445 307.752 501.184 307.347 500.992 306.888C500.811 306.419 500.72 305.907 500.72 305.352C500.72 304.797 500.811 304.285 500.992 303.816C501.184 303.336 501.445 302.92 501.776 302.568C502.117 302.216 502.517 301.944 502.976 301.752C503.445 301.549 503.947 301.448 504.48 301.448C505.141 301.448 505.717 301.571 506.208 301.816C506.709 302.061 507.115 302.408 507.424 302.856L506.512 303.816L506.4 303.928L506.304 303.832C506.293 303.747 506.272 303.667 506.24 303.592C506.219 303.507 506.149 303.395 506.032 303.256C505.819 303.064 505.584 302.931 505.328 302.856C505.072 302.771 504.779 302.728 504.448 302.728C504.171 302.728 503.904 302.787 503.648 302.904C503.403 303.021 503.179 303.192 502.976 303.416C502.784 303.64 502.629 303.912 502.512 304.232C502.395 304.552 502.336 304.909 502.336 305.304C502.336 305.688 502.395 306.04 502.512 306.36C502.629 306.669 502.789 306.936 502.992 307.16C503.195 307.373 503.429 307.544 503.696 307.672C503.973 307.789 504.261 307.848 504.56 307.848C504.795 307.848 505.019 307.821 505.232 307.768C505.456 307.704 505.669 307.608 505.872 307.48C506.075 307.341 506.267 307.165 506.448 306.952L507.328 307.976C506.944 308.392 506.501 308.696 506 308.888C505.509 309.08 505.008 309.176 504.496 309.176ZM509.584 301.592H511.232L511.2 303.704L511.008 303.528C511.061 303.208 511.163 302.92 511.312 302.664C511.461 302.397 511.643 302.173 511.856 301.992C512.08 301.811 512.325 301.672 512.592 301.576C512.859 301.469 513.136 301.416 513.424 301.416C513.829 301.416 514.197 301.485 514.528 301.624C514.859 301.763 515.157 301.971 515.424 302.248L514.752 303.56L514.688 303.704L514.56 303.64C514.528 303.555 514.496 303.469 514.464 303.384C514.432 303.299 514.352 303.197 514.224 303.08C514.064 302.973 513.904 302.893 513.744 302.84C513.595 302.787 513.419 302.76 513.216 302.76C512.96 302.76 512.709 302.808 512.464 302.904C512.229 302.989 512.016 303.128 511.824 303.32C511.632 303.512 511.477 303.757 511.36 304.056C511.253 304.344 511.2 304.696 511.2 305.112V309.016H509.584V301.592ZM517.44 309V307.736H519.28V302.856H517.52V301.592H520.88V307.736H522.56V309H517.44ZM519.984 300.264C519.696 300.264 519.451 300.168 519.248 299.976C519.056 299.773 518.96 299.539 518.96 299.272C518.96 298.984 519.056 298.744 519.248 298.552C519.44 298.36 519.685 298.264 519.984 298.264C520.261 298.264 520.501 298.365 520.704 298.568C520.917 298.771 521.024 299.005 521.024 299.272C521.024 299.539 520.917 299.773 520.704 299.976C520.501 300.168 520.261 300.264 519.984 300.264ZM528.384 309.176C528.117 309.176 527.856 309.133 527.6 309.048C527.355 308.973 527.12 308.861 526.896 308.712C526.683 308.552 526.491 308.36 526.32 308.136L525.984 309H524.832V298.296H526.432H526.576V298.44C526.523 298.504 526.485 298.573 526.464 298.648C526.453 298.723 526.448 298.851 526.448 299.032V302.536C526.555 302.365 526.683 302.216 526.832 302.088C526.981 301.949 527.141 301.832 527.312 301.736C527.493 301.629 527.68 301.549 527.872 301.496C528.075 301.443 528.272 301.416 528.464 301.416C528.912 301.427 529.317 301.512 529.68 301.672C530.053 301.821 530.373 302.056 530.64 302.376C530.907 302.685 531.109 303.075 531.248 303.544C531.397 304.013 531.472 304.563 531.472 305.192C531.472 305.864 531.387 306.451 531.216 306.952C531.056 307.453 530.832 307.869 530.544 308.2C530.256 308.531 529.925 308.776 529.552 308.936C529.179 309.096 528.789 309.176 528.384 309.176ZM528.112 307.896C528.347 307.896 528.565 307.853 528.768 307.768C528.981 307.683 529.168 307.539 529.328 307.336C529.499 307.133 529.632 306.867 529.728 306.536C529.824 306.205 529.872 305.805 529.872 305.336C529.872 304.899 529.829 304.515 529.744 304.184C529.669 303.853 529.557 303.576 529.408 303.352C529.259 303.117 529.072 302.947 528.848 302.84C528.635 302.723 528.4 302.664 528.144 302.664C527.792 302.664 527.488 302.771 527.232 302.984C526.987 303.197 526.795 303.501 526.656 303.896C526.517 304.28 526.448 304.739 526.448 305.272C526.448 305.688 526.48 306.061 526.544 306.392C526.608 306.712 526.704 306.984 526.832 307.208C526.971 307.432 527.141 307.603 527.344 307.72C527.557 307.837 527.813 307.896 528.112 307.896ZM536.336 309.176C535.803 309.176 535.312 309.091 534.864 308.92C534.416 308.749 534.027 308.504 533.696 308.184C533.376 307.853 533.125 307.448 532.944 306.968C532.763 306.488 532.672 305.944 532.672 305.336C532.672 304.717 532.763 304.168 532.944 303.688C533.125 303.197 533.371 302.787 533.68 302.456C534 302.125 534.368 301.869 534.784 301.688C535.211 301.507 535.664 301.416 536.144 301.416C536.56 301.416 536.955 301.491 537.328 301.64C537.712 301.789 538.043 302.013 538.32 302.312C538.608 302.6 538.832 302.968 538.992 303.416C539.163 303.864 539.248 304.387 539.248 304.984C539.248 305.091 539.248 305.213 539.248 305.352C539.248 305.48 539.243 305.592 539.232 305.688H534.208C534.229 306.072 534.304 306.408 534.432 306.696C534.56 306.973 534.72 307.203 534.912 307.384C535.115 307.565 535.344 307.699 535.6 307.784C535.856 307.869 536.123 307.912 536.4 307.912C536.645 307.912 536.869 307.891 537.072 307.848C537.285 307.795 537.488 307.715 537.68 307.608C537.872 307.501 538.048 307.357 538.208 307.176L539.04 307.992C538.816 308.259 538.565 308.483 538.288 308.664C538.011 308.835 537.707 308.963 537.376 309.048C537.056 309.133 536.709 309.176 536.336 309.176ZM534.24 304.488H537.696C537.696 304.189 537.659 303.928 537.584 303.704C537.509 303.48 537.397 303.288 537.248 303.128C537.109 302.968 536.939 302.851 536.736 302.776C536.533 302.691 536.309 302.648 536.064 302.648C535.829 302.648 535.611 302.685 535.408 302.76C535.216 302.835 535.04 302.947 534.88 303.096C534.72 303.245 534.581 303.437 534.464 303.672C534.357 303.896 534.283 304.168 534.24 304.488ZM543.344 311.72L542.496 311.016C542.795 310.739 543.029 310.456 543.2 310.168C543.371 309.88 543.456 309.64 543.456 309.448C543.456 309.331 543.419 309.219 543.344 309.112C543.269 309.016 543.179 308.92 543.072 308.824C542.976 308.728 542.891 308.616 542.816 308.488C542.741 308.349 542.704 308.195 542.704 308.024C542.704 307.704 542.811 307.448 543.024 307.256C543.248 307.064 543.52 306.968 543.84 306.968C544.203 306.968 544.501 307.112 544.736 307.4C544.981 307.677 545.104 308.04 545.104 308.488C545.104 308.723 545.067 308.963 544.992 309.208C544.917 309.464 544.805 309.725 544.656 309.992C544.517 310.269 544.336 310.547 544.112 310.824C543.899 311.112 543.643 311.411 543.344 311.72ZM559.232 309.176C558.411 309.176 557.771 308.989 557.312 308.616C556.864 308.232 556.64 307.736 556.64 307.128C556.64 306.723 556.731 306.36 556.912 306.04C557.104 305.709 557.371 305.427 557.712 305.192C558.064 304.957 558.485 304.776 558.976 304.648C559.467 304.509 560.021 304.44 560.64 304.44C560.768 304.44 560.901 304.445 561.04 304.456C561.189 304.456 561.344 304.461 561.504 304.472C561.675 304.483 561.845 304.493 562.016 304.504L562.064 305.64C561.915 305.619 561.755 305.603 561.584 305.592C561.424 305.581 561.264 305.576 561.104 305.576C560.944 305.576 560.795 305.576 560.656 305.576C560.24 305.576 559.877 305.608 559.568 305.672C559.269 305.725 559.019 305.811 558.816 305.928C558.624 306.045 558.48 306.189 558.384 306.36C558.288 306.531 558.24 306.728 558.24 306.952C558.24 307.133 558.272 307.293 558.336 307.432C558.4 307.56 558.485 307.661 558.592 307.736C558.709 307.811 558.843 307.869 558.992 307.912C559.152 307.944 559.323 307.96 559.504 307.96C559.856 307.96 560.165 307.901 560.432 307.784C560.699 307.667 560.923 307.496 561.104 307.272C561.296 307.037 561.44 306.749 561.536 306.408C561.632 306.056 561.68 305.645 561.68 305.176C561.68 304.525 561.605 304.019 561.456 303.656C561.317 303.293 561.109 303.043 560.832 302.904C560.555 302.765 560.208 302.696 559.792 302.696C559.451 302.696 559.12 302.755 558.8 302.872C558.491 302.979 558.187 303.181 557.888 303.48L557.04 302.52C557.445 302.136 557.888 301.859 558.368 301.688C558.859 301.517 559.36 301.432 559.872 301.432C560.341 301.432 560.773 301.491 561.168 301.608C561.573 301.715 561.925 301.896 562.224 302.152C562.533 302.408 562.768 302.755 562.928 303.192C563.099 303.629 563.184 304.184 563.184 304.856V309H561.52V308.088C561.381 308.301 561.227 308.483 561.056 308.632C560.885 308.771 560.699 308.883 560.496 308.968C560.304 309.043 560.101 309.096 559.888 309.128C559.675 309.16 559.456 309.176 559.232 309.176ZM576.784 309.144C576.347 309.144 575.968 309.075 575.648 308.936C575.339 308.787 575.088 308.552 574.896 308.232C574.715 307.912 574.587 307.496 574.512 306.984C574.437 306.472 574.411 305.848 574.432 305.112L574.64 299.8L576.272 299.592L576.432 299.576L576.448 299.72C576.395 299.795 576.347 299.869 576.304 299.944C576.272 300.019 576.245 300.147 576.224 300.328L576.064 302.392L576.128 302.568L576.016 305.112C575.984 305.837 576.005 306.403 576.08 306.808C576.155 307.203 576.283 307.48 576.464 307.64C576.645 307.789 576.864 307.864 577.12 307.864C577.461 307.864 577.765 307.795 578.032 307.656C578.309 307.517 578.581 307.347 578.848 307.144L579.2 308.328C578.837 308.595 578.459 308.797 578.064 308.936C577.669 309.075 577.243 309.144 576.784 309.144ZM572.992 301.592H578.576L578.56 302.872H572.992V301.592ZM581.584 301.592H583.232L583.2 303.704L583.008 303.528C583.061 303.208 583.163 302.92 583.312 302.664C583.461 302.397 583.643 302.173 583.856 301.992C584.08 301.811 584.325 301.672 584.592 301.576C584.859 301.469 585.136 301.416 585.424 301.416C585.829 301.416 586.197 301.485 586.528 301.624C586.859 301.763 587.157 301.971 587.424 302.248L586.752 303.56L586.688 303.704L586.56 303.64C586.528 303.555 586.496 303.469 586.464 303.384C586.432 303.299 586.352 303.197 586.224 303.08C586.064 302.973 585.904 302.893 585.744 302.84C585.595 302.787 585.419 302.76 585.216 302.76C584.96 302.76 584.709 302.808 584.464 302.904C584.229 302.989 584.016 303.128 583.824 303.32C583.632 303.512 583.477 303.757 583.36 304.056C583.253 304.344 583.2 304.696 583.2 305.112V309.016H581.584V301.592ZM591.232 309.176C590.411 309.176 589.771 308.989 589.312 308.616C588.864 308.232 588.64 307.736 588.64 307.128C588.64 306.723 588.731 306.36 588.912 306.04C589.104 305.709 589.371 305.427 589.712 305.192C590.064 304.957 590.485 304.776 590.976 304.648C591.467 304.509 592.021 304.44 592.64 304.44C592.768 304.44 592.901 304.445 593.04 304.456C593.189 304.456 593.344 304.461 593.504 304.472C593.675 304.483 593.845 304.493 594.016 304.504L594.064 305.64C593.915 305.619 593.755 305.603 593.584 305.592C593.424 305.581 593.264 305.576 593.104 305.576C592.944 305.576 592.795 305.576 592.656 305.576C592.24 305.576 591.877 305.608 591.568 305.672C591.269 305.725 591.019 305.811 590.816 305.928C590.624 306.045 590.48 306.189 590.384 306.36C590.288 306.531 590.24 306.728 590.24 306.952C590.24 307.133 590.272 307.293 590.336 307.432C590.4 307.56 590.485 307.661 590.592 307.736C590.709 307.811 590.843 307.869 590.992 307.912C591.152 307.944 591.323 307.96 591.504 307.96C591.856 307.96 592.165 307.901 592.432 307.784C592.699 307.667 592.923 307.496 593.104 307.272C593.296 307.037 593.44 306.749 593.536 306.408C593.632 306.056 593.68 305.645 593.68 305.176C593.68 304.525 593.605 304.019 593.456 303.656C593.317 303.293 593.109 303.043 592.832 302.904C592.555 302.765 592.208 302.696 591.792 302.696C591.451 302.696 591.12 302.755 590.8 302.872C590.491 302.979 590.187 303.181 589.888 303.48L589.04 302.52C589.445 302.136 589.888 301.859 590.368 301.688C590.859 301.517 591.36 301.432 591.872 301.432C592.341 301.432 592.773 301.491 593.168 301.608C593.573 301.715 593.925 301.896 594.224 302.152C594.533 302.408 594.768 302.755 594.928 303.192C595.099 303.629 595.184 304.184 595.184 304.856V309H593.52V308.088C593.381 308.301 593.227 308.483 593.056 308.632C592.885 308.771 592.699 308.883 592.496 308.968C592.304 309.043 592.101 309.096 591.888 309.128C591.675 309.16 591.456 309.176 591.232 309.176ZM596.96 309V301.592H598.56V302.728C598.741 302.461 598.944 302.232 599.168 302.04C599.392 301.848 599.643 301.699 599.92 301.592C600.197 301.475 600.496 301.416 600.816 301.416C601.232 301.416 601.616 301.523 601.968 301.736C602.32 301.949 602.603 302.285 602.816 302.744C603.029 303.192 603.136 303.789 603.136 304.536V309H601.552V304.552C601.552 304.115 601.504 303.757 601.408 303.48C601.312 303.203 601.173 303 600.992 302.872C600.821 302.744 600.613 302.68 600.368 302.68C600.155 302.68 599.941 302.728 599.728 302.824C599.515 302.92 599.317 303.053 599.136 303.224C598.965 303.384 598.827 303.587 598.72 303.832C598.613 304.067 598.56 304.333 598.56 304.632V309H596.96ZM608.112 309.176C607.664 309.176 607.243 309.133 606.848 309.048C606.453 308.963 606.08 308.835 605.728 308.664C605.387 308.493 605.072 308.275 604.784 308.008L605.52 306.664L605.616 306.52L605.728 306.584C605.749 306.669 605.776 306.76 605.808 306.856C605.84 306.941 605.915 307.048 606.032 307.176C606.288 307.4 606.581 307.581 606.912 307.72C607.243 307.848 607.648 307.912 608.128 307.912C608.459 307.912 608.736 307.875 608.96 307.8C609.195 307.715 609.376 307.603 609.504 307.464C609.632 307.315 609.696 307.149 609.696 306.968C609.696 306.829 609.659 306.712 609.584 306.616C609.52 306.509 609.419 306.413 609.28 306.328C609.141 306.232 608.96 306.141 608.736 306.056C608.512 305.96 608.24 305.869 607.92 305.784C607.376 305.624 606.901 305.443 606.496 305.24C606.091 305.027 605.776 304.776 605.552 304.488C605.328 304.2 605.216 303.859 605.216 303.464C605.216 303.069 605.328 302.723 605.552 302.424C605.787 302.115 606.117 301.869 606.544 301.688C606.971 301.507 607.477 301.416 608.064 301.416C608.384 301.416 608.683 301.443 608.96 301.496C609.248 301.539 609.509 301.608 609.744 301.704C609.989 301.8 610.219 301.923 610.432 302.072C610.645 302.211 610.848 302.376 611.04 302.568L610.224 303.656L610.128 303.784L610.016 303.688C610.005 303.603 609.979 303.523 609.936 303.448C609.904 303.373 609.829 303.277 609.712 303.16C609.477 302.989 609.221 302.861 608.944 302.776C608.667 302.691 608.384 302.648 608.096 302.648C607.723 302.648 607.392 302.712 607.104 302.84C606.827 302.968 606.688 303.16 606.688 303.416C606.688 303.565 606.747 303.704 606.864 303.832C606.992 303.96 607.195 304.088 607.472 304.216C607.749 304.333 608.128 304.456 608.608 304.584C609.216 304.744 609.707 304.931 610.08 305.144C610.453 305.347 610.725 305.587 610.896 305.864C611.077 306.141 611.168 306.467 611.168 306.84C611.168 307.256 611.051 307.645 610.816 308.008C610.592 308.36 610.251 308.643 609.792 308.856C609.333 309.069 608.773 309.176 608.112 309.176ZM616.496 309.176C615.952 309.176 615.445 309.085 614.976 308.904C614.517 308.712 614.117 308.445 613.776 308.104C613.445 307.752 613.184 307.347 612.992 306.888C612.811 306.419 612.72 305.907 612.72 305.352C612.72 304.797 612.811 304.285 612.992 303.816C613.184 303.336 613.445 302.92 613.776 302.568C614.117 302.216 614.517 301.944 614.976 301.752C615.445 301.549 615.947 301.448 616.48 301.448C617.141 301.448 617.717 301.571 618.208 301.816C618.709 302.061 619.115 302.408 619.424 302.856L618.512 303.816L618.4 303.928L618.304 303.832C618.293 303.747 618.272 303.667 618.24 303.592C618.219 303.507 618.149 303.395 618.032 303.256C617.819 303.064 617.584 302.931 617.328 302.856C617.072 302.771 616.779 302.728 616.448 302.728C616.171 302.728 615.904 302.787 615.648 302.904C615.403 303.021 615.179 303.192 614.976 303.416C614.784 303.64 614.629 303.912 614.512 304.232C614.395 304.552 614.336 304.909 614.336 305.304C614.336 305.688 614.395 306.04 614.512 306.36C614.629 306.669 614.789 306.936 614.992 307.16C615.195 307.373 615.429 307.544 615.696 307.672C615.973 307.789 616.261 307.848 616.56 307.848C616.795 307.848 617.019 307.821 617.232 307.768C617.456 307.704 617.669 307.608 617.872 307.48C618.075 307.341 618.267 307.165 618.448 306.952L619.328 307.976C618.944 308.392 618.501 308.696 618 308.888C617.509 309.08 617.008 309.176 616.496 309.176ZM621.584 301.592H623.232L623.2 303.704L623.008 303.528C623.061 303.208 623.163 302.92 623.312 302.664C623.461 302.397 623.643 302.173 623.856 301.992C624.08 301.811 624.325 301.672 624.592 301.576C624.859 301.469 625.136 301.416 625.424 301.416C625.829 301.416 626.197 301.485 626.528 301.624C626.859 301.763 627.157 301.971 627.424 302.248L626.752 303.56L626.688 303.704L626.56 303.64C626.528 303.555 626.496 303.469 626.464 303.384C626.432 303.299 626.352 303.197 626.224 303.08C626.064 302.973 625.904 302.893 625.744 302.84C625.595 302.787 625.419 302.76 625.216 302.76C624.96 302.76 624.709 302.808 624.464 302.904C624.229 302.989 624.016 303.128 623.824 303.32C623.632 303.512 623.477 303.757 623.36 304.056C623.253 304.344 623.2 304.696 623.2 305.112V309.016H621.584V301.592ZM629.44 309V307.736H631.28V302.856H629.52V301.592H632.88V307.736H634.56V309H629.44ZM631.984 300.264C631.696 300.264 631.451 300.168 631.248 299.976C631.056 299.773 630.96 299.539 630.96 299.272C630.96 298.984 631.056 298.744 631.248 298.552C631.44 298.36 631.685 298.264 631.984 298.264C632.261 298.264 632.501 298.365 632.704 298.568C632.917 298.771 633.024 299.005 633.024 299.272C633.024 299.539 632.917 299.773 632.704 299.976C632.501 300.168 632.261 300.264 631.984 300.264ZM636.832 311.672V301.592H638.416V302.776C638.555 302.456 638.731 302.2 638.944 302.008C639.168 301.805 639.413 301.661 639.68 301.576C639.947 301.48 640.235 301.432 640.544 301.432C640.949 301.432 641.328 301.517 641.68 301.688C642.043 301.848 642.363 302.088 642.64 302.408C642.917 302.728 643.136 303.128 643.296 303.608C643.456 304.088 643.536 304.648 643.536 305.288C643.536 305.939 643.451 306.509 643.28 307C643.109 307.491 642.88 307.901 642.592 308.232C642.315 308.552 641.995 308.792 641.632 308.952C641.269 309.112 640.896 309.192 640.512 309.192C640.245 309.192 639.979 309.155 639.712 309.08C639.456 309.016 639.221 308.915 639.008 308.776C638.795 308.627 638.608 308.456 638.448 308.264V311.672H636.832ZM640.112 307.912C640.357 307.912 640.587 307.869 640.8 307.784C641.013 307.688 641.205 307.544 641.376 307.352C641.547 307.149 641.68 306.877 641.776 306.536C641.872 306.184 641.92 305.757 641.92 305.256C641.92 304.723 641.851 304.269 641.712 303.896C641.584 303.523 641.392 303.235 641.136 303.032C640.891 302.829 640.592 302.723 640.24 302.712C639.973 302.701 639.728 302.749 639.504 302.856C639.28 302.952 639.088 303.112 638.928 303.336C638.768 303.549 638.645 303.837 638.56 304.2C638.485 304.552 638.448 304.973 638.448 305.464C638.448 305.795 638.469 306.093 638.512 306.36C638.565 306.616 638.64 306.845 638.736 307.048C638.832 307.24 638.944 307.4 639.072 307.528C639.211 307.656 639.365 307.752 639.536 307.816C639.717 307.88 639.909 307.912 640.112 307.912ZM648.784 309.144C648.347 309.144 647.968 309.075 647.648 308.936C647.339 308.787 647.088 308.552 646.896 308.232C646.715 307.912 646.587 307.496 646.512 306.984C646.437 306.472 646.411 305.848 646.432 305.112L646.64 299.8L648.272 299.592L648.432 299.576L648.448 299.72C648.395 299.795 648.347 299.869 648.304 299.944C648.272 300.019 648.245 300.147 648.224 300.328L648.064 302.392L648.128 302.568L648.016 305.112C647.984 305.837 648.005 306.403 648.08 306.808C648.155 307.203 648.283 307.48 648.464 307.64C648.645 307.789 648.864 307.864 649.12 307.864C649.461 307.864 649.765 307.795 650.032 307.656C650.309 307.517 650.581 307.347 650.848 307.144L651.2 308.328C650.837 308.595 650.459 308.797 650.064 308.936C649.669 309.075 649.243 309.144 648.784 309.144ZM644.992 301.592H650.576L650.56 302.872H644.992V301.592ZM653.44 309V307.736H655.28V302.856H653.52V301.592H656.88V307.736H658.56V309H653.44ZM655.984 300.264C655.696 300.264 655.451 300.168 655.248 299.976C655.056 299.773 654.96 299.539 654.96 299.272C654.96 298.984 655.056 298.744 655.248 298.552C655.44 298.36 655.685 298.264 655.984 298.264C656.261 298.264 656.501 298.365 656.704 298.568C656.917 298.771 657.024 299.005 657.024 299.272C657.024 299.539 656.917 299.773 656.704 299.976C656.501 300.168 656.261 300.264 655.984 300.264ZM664 309.16C663.328 309.16 662.731 309 662.208 308.68C661.685 308.349 661.269 307.896 660.96 307.32C660.651 306.733 660.496 306.061 660.496 305.304C660.496 304.557 660.651 303.896 660.96 303.32C661.269 302.733 661.685 302.275 662.208 301.944C662.731 301.603 663.328 301.432 664 301.432C664.661 301.432 665.253 301.603 665.776 301.944C666.309 302.275 666.731 302.733 667.04 303.32C667.349 303.896 667.504 304.557 667.504 305.304C667.504 306.051 667.349 306.717 667.04 307.304C666.731 307.88 666.309 308.333 665.776 308.664C665.253 308.995 664.661 309.16 664 309.16ZM664 307.864C664.363 307.864 664.683 307.757 664.96 307.544C665.248 307.32 665.472 307.016 665.632 306.632C665.792 306.248 665.872 305.8 665.872 305.288C665.872 304.765 665.792 304.312 665.632 303.928C665.472 303.544 665.248 303.245 664.96 303.032C664.683 302.819 664.363 302.712 664 302.712C663.637 302.712 663.312 302.819 663.024 303.032C662.747 303.245 662.528 303.544 662.368 303.928C662.208 304.312 662.128 304.765 662.128 305.288C662.128 305.8 662.208 306.248 662.368 306.632C662.528 307.016 662.747 307.32 663.024 307.544C663.312 307.757 663.637 307.864 664 307.864ZM668.96 309V301.592H670.56V302.728C670.741 302.461 670.944 302.232 671.168 302.04C671.392 301.848 671.643 301.699 671.92 301.592C672.197 301.475 672.496 301.416 672.816 301.416C673.232 301.416 673.616 301.523 673.968 301.736C674.32 301.949 674.603 302.285 674.816 302.744C675.029 303.192 675.136 303.789 675.136 304.536V309H673.552V304.552C673.552 304.115 673.504 303.757 673.408 303.48C673.312 303.203 673.173 303 672.992 302.872C672.821 302.744 672.613 302.68 672.368 302.68C672.155 302.68 671.941 302.728 671.728 302.824C671.515 302.92 671.317 303.053 671.136 303.224C670.965 303.384 670.827 303.587 670.72 303.832C670.613 304.067 670.56 304.333 670.56 304.632V309H668.96ZM336.384 326.176C336.117 326.176 335.856 326.133 335.6 326.048C335.355 325.973 335.12 325.861 334.896 325.712C334.683 325.552 334.491 325.36 334.32 325.136L333.984 326H332.832V315.296H334.432H334.576V315.44C334.523 315.504 334.485 315.573 334.464 315.648C334.453 315.723 334.448 315.851 334.448 316.032V319.536C334.555 319.365 334.683 319.216 334.832 319.088C334.981 318.949 335.141 318.832 335.312 318.736C335.493 318.629 335.68 318.549 335.872 318.496C336.075 318.443 336.272 318.416 336.464 318.416C336.912 318.427 337.317 318.512 337.68 318.672C338.053 318.821 338.373 319.056 338.64 319.376C338.907 319.685 339.109 320.075 339.248 320.544C339.397 321.013 339.472 321.563 339.472 322.192C339.472 322.864 339.387 323.451 339.216 323.952C339.056 324.453 338.832 324.869 338.544 325.2C338.256 325.531 337.925 325.776 337.552 325.936C337.179 326.096 336.789 326.176 336.384 326.176ZM336.112 324.896C336.347 324.896 336.565 324.853 336.768 324.768C336.981 324.683 337.168 324.539 337.328 324.336C337.499 324.133 337.632 323.867 337.728 323.536C337.824 323.205 337.872 322.805 337.872 322.336C337.872 321.899 337.829 321.515 337.744 321.184C337.669 320.853 337.557 320.576 337.408 320.352C337.259 320.117 337.072 319.947 336.848 319.84C336.635 319.723 336.4 319.664 336.144 319.664C335.792 319.664 335.488 319.771 335.232 319.984C334.987 320.197 334.795 320.501 334.656 320.896C334.517 321.28 334.448 321.739 334.448 322.272C334.448 322.688 334.48 323.061 334.544 323.392C334.608 323.712 334.704 323.984 334.832 324.208C334.971 324.432 335.141 324.603 335.344 324.72C335.557 324.837 335.813 324.896 336.112 324.896ZM344 326.16C343.328 326.16 342.731 326 342.208 325.68C341.685 325.349 341.269 324.896 340.96 324.32C340.651 323.733 340.496 323.061 340.496 322.304C340.496 321.557 340.651 320.896 340.96 320.32C341.269 319.733 341.685 319.275 342.208 318.944C342.731 318.603 343.328 318.432 344 318.432C344.661 318.432 345.253 318.603 345.776 318.944C346.309 319.275 346.731 319.733 347.04 320.32C347.349 320.896 347.504 321.557 347.504 322.304C347.504 323.051 347.349 323.717 347.04 324.304C346.731 324.88 346.309 325.333 345.776 325.664C345.253 325.995 344.661 326.16 344 326.16ZM344 324.864C344.363 324.864 344.683 324.757 344.96 324.544C345.248 324.32 345.472 324.016 345.632 323.632C345.792 323.248 345.872 322.8 345.872 322.288C345.872 321.765 345.792 321.312 345.632 320.928C345.472 320.544 345.248 320.245 344.96 320.032C344.683 319.819 344.363 319.712 344 319.712C343.637 319.712 343.312 319.819 343.024 320.032C342.747 320.245 342.528 320.544 342.368 320.928C342.208 321.312 342.128 321.765 342.128 322.288C342.128 322.8 342.208 323.248 342.368 323.632C342.528 324.016 342.747 324.32 343.024 324.544C343.312 324.757 343.637 324.864 344 324.864ZM352.784 326.144C352.347 326.144 351.968 326.075 351.648 325.936C351.339 325.787 351.088 325.552 350.896 325.232C350.715 324.912 350.587 324.496 350.512 323.984C350.437 323.472 350.411 322.848 350.432 322.112L350.64 316.8L352.272 316.592L352.432 316.576L352.448 316.72C352.395 316.795 352.347 316.869 352.304 316.944C352.272 317.019 352.245 317.147 352.224 317.328L352.064 319.392L352.128 319.568L352.016 322.112C351.984 322.837 352.005 323.403 352.08 323.808C352.155 324.203 352.283 324.48 352.464 324.64C352.645 324.789 352.864 324.864 353.12 324.864C353.461 324.864 353.765 324.795 354.032 324.656C354.309 324.517 354.581 324.347 354.848 324.144L355.2 325.328C354.837 325.595 354.459 325.797 354.064 325.936C353.669 326.075 353.243 326.144 352.784 326.144ZM348.992 318.592H354.576L354.56 319.872H348.992V318.592ZM366.336 319.856H364.752V318.592H366.336V318.096C366.336 317.435 366.469 316.891 366.736 316.464C367.013 316.027 367.376 315.707 367.824 315.504C368.272 315.291 368.763 315.184 369.296 315.184C369.787 315.184 370.24 315.269 370.656 315.44C371.072 315.611 371.429 315.867 371.728 316.208L371.056 317.312L370.976 317.44L370.864 317.376C370.843 317.291 370.811 317.205 370.768 317.12C370.736 317.035 370.656 316.933 370.528 316.816C370.347 316.677 370.171 316.581 370 316.528C369.829 316.475 369.621 316.448 369.376 316.448C369.077 316.448 368.816 316.507 368.592 316.624C368.379 316.731 368.208 316.907 368.08 317.152C367.963 317.387 367.904 317.701 367.904 318.096V318.592H370.208V319.856H367.904V326H366.336V319.856ZM376 326.16C375.328 326.16 374.731 326 374.208 325.68C373.685 325.349 373.269 324.896 372.96 324.32C372.651 323.733 372.496 323.061 372.496 322.304C372.496 321.557 372.651 320.896 372.96 320.32C373.269 319.733 373.685 319.275 374.208 318.944C374.731 318.603 375.328 318.432 376 318.432C376.661 318.432 377.253 318.603 377.776 318.944C378.309 319.275 378.731 319.733 379.04 320.32C379.349 320.896 379.504 321.557 379.504 322.304C379.504 323.051 379.349 323.717 379.04 324.304C378.731 324.88 378.309 325.333 377.776 325.664C377.253 325.995 376.661 326.16 376 326.16ZM376 324.864C376.363 324.864 376.683 324.757 376.96 324.544C377.248 324.32 377.472 324.016 377.632 323.632C377.792 323.248 377.872 322.8 377.872 322.288C377.872 321.765 377.792 321.312 377.632 320.928C377.472 320.544 377.248 320.245 376.96 320.032C376.683 319.819 376.363 319.712 376 319.712C375.637 319.712 375.312 319.819 375.024 320.032C374.747 320.245 374.528 320.544 374.368 320.928C374.208 321.312 374.128 321.765 374.128 322.288C374.128 322.8 374.208 323.248 374.368 323.632C374.528 324.016 374.747 324.32 375.024 324.544C375.312 324.757 375.637 324.864 376 324.864ZM381.584 318.592H383.232L383.2 320.704L383.008 320.528C383.061 320.208 383.163 319.92 383.312 319.664C383.461 319.397 383.643 319.173 383.856 318.992C384.08 318.811 384.325 318.672 384.592 318.576C384.859 318.469 385.136 318.416 385.424 318.416C385.829 318.416 386.197 318.485 386.528 318.624C386.859 318.763 387.157 318.971 387.424 319.248L386.752 320.56L386.688 320.704L386.56 320.64C386.528 320.555 386.496 320.469 386.464 320.384C386.432 320.299 386.352 320.197 386.224 320.08C386.064 319.973 385.904 319.893 385.744 319.84C385.595 319.787 385.419 319.76 385.216 319.76C384.96 319.76 384.709 319.808 384.464 319.904C384.229 319.989 384.016 320.128 383.824 320.32C383.632 320.512 383.477 320.757 383.36 321.056C383.253 321.344 383.2 321.696 383.2 322.112V326.016H381.584V318.592ZM396.736 326.016V316.032H399.216C399.803 316.032 400.293 316.085 400.688 316.192C401.093 316.299 401.435 316.453 401.712 316.656C402 316.859 402.251 317.109 402.464 317.408C402.688 317.707 402.875 318.043 403.024 318.416C403.184 318.789 403.301 319.2 403.376 319.648C403.451 320.085 403.488 320.56 403.488 321.072C403.477 321.84 403.381 322.528 403.2 323.136C403.029 323.744 402.763 324.261 402.4 324.688C402.048 325.115 401.595 325.445 401.04 325.68C400.485 325.904 399.813 326.016 399.024 326.016H396.736ZM398.256 324.768H398.992C399.707 324.768 400.277 324.624 400.704 324.336C401.141 324.037 401.456 323.616 401.648 323.072C401.851 322.517 401.952 321.867 401.952 321.12C401.952 320.331 401.861 319.653 401.68 319.088C401.499 318.523 401.205 318.085 400.8 317.776C400.405 317.456 399.856 317.296 399.152 317.296H398.256V324.768ZM405.44 326V324.736H407.28V319.856H405.52V318.592H408.88V324.736H410.56V326H405.44ZM407.984 317.264C407.696 317.264 407.451 317.168 407.248 316.976C407.056 316.773 406.96 316.539 406.96 316.272C406.96 315.984 407.056 315.744 407.248 315.552C407.44 315.36 407.685 315.264 407.984 315.264C408.261 315.264 408.501 315.365 408.704 315.568C408.917 315.771 409.024 316.005 409.024 316.272C409.024 316.539 408.917 316.773 408.704 316.976C408.501 317.168 408.261 317.264 407.984 317.264ZM416.112 326.176C415.664 326.176 415.243 326.133 414.848 326.048C414.453 325.963 414.08 325.835 413.728 325.664C413.387 325.493 413.072 325.275 412.784 325.008L413.52 323.664L413.616 323.52L413.728 323.584C413.749 323.669 413.776 323.76 413.808 323.856C413.84 323.941 413.915 324.048 414.032 324.176C414.288 324.4 414.581 324.581 414.912 324.72C415.243 324.848 415.648 324.912 416.128 324.912C416.459 324.912 416.736 324.875 416.96 324.8C417.195 324.715 417.376 324.603 417.504 324.464C417.632 324.315 417.696 324.149 417.696 323.968C417.696 323.829 417.659 323.712 417.584 323.616C417.52 323.509 417.419 323.413 417.28 323.328C417.141 323.232 416.96 323.141 416.736 323.056C416.512 322.96 416.24 322.869 415.92 322.784C415.376 322.624 414.901 322.443 414.496 322.24C414.091 322.027 413.776 321.776 413.552 321.488C413.328 321.2 413.216 320.859 413.216 320.464C413.216 320.069 413.328 319.723 413.552 319.424C413.787 319.115 414.117 318.869 414.544 318.688C414.971 318.507 415.477 318.416 416.064 318.416C416.384 318.416 416.683 318.443 416.96 318.496C417.248 318.539 417.509 318.608 417.744 318.704C417.989 318.8 418.219 318.923 418.432 319.072C418.645 319.211 418.848 319.376 419.04 319.568L418.224 320.656L418.128 320.784L418.016 320.688C418.005 320.603 417.979 320.523 417.936 320.448C417.904 320.373 417.829 320.277 417.712 320.16C417.477 319.989 417.221 319.861 416.944 319.776C416.667 319.691 416.384 319.648 416.096 319.648C415.723 319.648 415.392 319.712 415.104 319.84C414.827 319.968 414.688 320.16 414.688 320.416C414.688 320.565 414.747 320.704 414.864 320.832C414.992 320.96 415.195 321.088 415.472 321.216C415.749 321.333 416.128 321.456 416.608 321.584C417.216 321.744 417.707 321.931 418.08 322.144C418.453 322.347 418.725 322.587 418.896 322.864C419.077 323.141 419.168 323.467 419.168 323.84C419.168 324.256 419.051 324.645 418.816 325.008C418.592 325.36 418.251 325.643 417.792 325.856C417.333 326.069 416.773 326.176 416.112 326.176ZM424.496 326.176C423.952 326.176 423.445 326.085 422.976 325.904C422.517 325.712 422.117 325.445 421.776 325.104C421.445 324.752 421.184 324.347 420.992 323.888C420.811 323.419 420.72 322.907 420.72 322.352C420.72 321.797 420.811 321.285 420.992 320.816C421.184 320.336 421.445 319.92 421.776 319.568C422.117 319.216 422.517 318.944 422.976 318.752C423.445 318.549 423.947 318.448 424.48 318.448C425.141 318.448 425.717 318.571 426.208 318.816C426.709 319.061 427.115 319.408 427.424 319.856L426.512 320.816L426.4 320.928L426.304 320.832C426.293 320.747 426.272 320.667 426.24 320.592C426.219 320.507 426.149 320.395 426.032 320.256C425.819 320.064 425.584 319.931 425.328 319.856C425.072 319.771 424.779 319.728 424.448 319.728C424.171 319.728 423.904 319.787 423.648 319.904C423.403 320.021 423.179 320.192 422.976 320.416C422.784 320.64 422.629 320.912 422.512 321.232C422.395 321.552 422.336 321.909 422.336 322.304C422.336 322.688 422.395 323.04 422.512 323.36C422.629 323.669 422.789 323.936 422.992 324.16C423.195 324.373 423.429 324.544 423.696 324.672C423.973 324.789 424.261 324.848 424.56 324.848C424.795 324.848 425.019 324.821 425.232 324.768C425.456 324.704 425.669 324.608 425.872 324.48C426.075 324.341 426.267 324.165 426.448 323.952L427.328 324.976C426.944 325.392 426.501 325.696 426 325.888C425.509 326.08 425.008 326.176 424.496 326.176ZM432 326.16C431.328 326.16 430.731 326 430.208 325.68C429.685 325.349 429.269 324.896 428.96 324.32C428.651 323.733 428.496 323.061 428.496 322.304C428.496 321.557 428.651 320.896 428.96 320.32C429.269 319.733 429.685 319.275 430.208 318.944C430.731 318.603 431.328 318.432 432 318.432C432.661 318.432 433.253 318.603 433.776 318.944C434.309 319.275 434.731 319.733 435.04 320.32C435.349 320.896 435.504 321.557 435.504 322.304C435.504 323.051 435.349 323.717 435.04 324.304C434.731 324.88 434.309 325.333 433.776 325.664C433.253 325.995 432.661 326.16 432 326.16ZM432 324.864C432.363 324.864 432.683 324.757 432.96 324.544C433.248 324.32 433.472 324.016 433.632 323.632C433.792 323.248 433.872 322.8 433.872 322.288C433.872 321.765 433.792 321.312 433.632 320.928C433.472 320.544 433.248 320.245 432.96 320.032C432.683 319.819 432.363 319.712 432 319.712C431.637 319.712 431.312 319.819 431.024 320.032C430.747 320.245 430.528 320.544 430.368 320.928C430.208 321.312 430.128 321.765 430.128 322.288C430.128 322.8 430.208 323.248 430.368 323.632C430.528 324.016 430.747 324.32 431.024 324.544C431.312 324.757 431.637 324.864 432 324.864ZM437.584 318.592H439.232L439.2 320.704L439.008 320.528C439.061 320.208 439.163 319.92 439.312 319.664C439.461 319.397 439.643 319.173 439.856 318.992C440.08 318.811 440.325 318.672 440.592 318.576C440.859 318.469 441.136 318.416 441.424 318.416C441.829 318.416 442.197 318.485 442.528 318.624C442.859 318.763 443.157 318.971 443.424 319.248L442.752 320.56L442.688 320.704L442.56 320.64C442.528 320.555 442.496 320.469 442.464 320.384C442.432 320.299 442.352 320.197 442.224 320.08C442.064 319.973 441.904 319.893 441.744 319.84C441.595 319.787 441.419 319.76 441.216 319.76C440.96 319.76 440.709 319.808 440.464 319.904C440.229 319.989 440.016 320.128 439.824 320.32C439.632 320.512 439.477 320.757 439.36 321.056C439.253 321.344 439.2 321.696 439.2 322.112V326.016H437.584V318.592ZM447.648 326.176C447.253 326.176 446.869 326.096 446.496 325.936C446.133 325.765 445.808 325.52 445.52 325.2C445.232 324.88 445.003 324.475 444.832 323.984C444.672 323.483 444.592 322.907 444.592 322.256C444.592 321.595 444.672 321.024 444.832 320.544C445.003 320.064 445.232 319.669 445.52 319.36C445.808 319.04 446.139 318.805 446.512 318.656C446.885 318.496 447.275 318.416 447.68 318.416C447.968 318.416 448.229 318.453 448.464 318.528C448.709 318.603 448.928 318.715 449.12 318.864C449.312 319.013 449.467 319.2 449.584 319.424V315.296H451.136H451.28V315.44C451.227 315.504 451.189 315.573 451.168 315.648C451.147 315.723 451.141 315.851 451.152 316.032V324.96C451.152 325.131 451.157 325.307 451.168 325.488C451.189 325.659 451.237 325.829 451.312 326H449.744C449.691 325.883 449.653 325.776 449.632 325.68C449.611 325.584 449.6 325.488 449.6 325.392C449.6 325.296 449.6 325.195 449.6 325.088C449.451 325.312 449.28 325.509 449.088 325.68C448.896 325.84 448.677 325.963 448.432 326.048C448.187 326.133 447.925 326.176 447.648 326.176ZM447.92 324.864C448.208 324.864 448.453 324.805 448.656 324.688C448.859 324.571 449.024 324.4 449.152 324.176C449.28 323.952 449.376 323.68 449.44 323.36C449.504 323.04 449.536 322.677 449.536 322.272C449.536 321.728 449.477 321.264 449.36 320.88C449.243 320.485 449.056 320.187 448.8 319.984C448.555 319.771 448.24 319.664 447.856 319.664C447.579 319.664 447.333 319.723 447.12 319.84C446.907 319.957 446.725 320.128 446.576 320.352C446.437 320.565 446.331 320.827 446.256 321.136C446.181 321.445 446.144 321.792 446.144 322.176C446.144 322.72 446.219 323.195 446.368 323.6C446.528 324.005 446.741 324.32 447.008 324.544C447.275 324.757 447.579 324.864 447.92 324.864ZM455.28 322.736L454.848 316.624C454.837 316.315 454.875 316.064 454.96 315.872C455.045 315.68 455.168 315.536 455.328 315.44C455.488 315.344 455.664 315.296 455.856 315.296C456.048 315.296 456.219 315.344 456.368 315.44C456.528 315.525 456.651 315.675 456.736 315.888C456.832 316.091 456.875 316.368 456.864 316.72L456.4 322.736H455.28ZM455.824 326.176C455.504 326.176 455.227 326.069 454.992 325.856C454.768 325.632 454.656 325.365 454.656 325.056C454.656 324.757 454.768 324.496 454.992 324.272C455.227 324.037 455.504 323.92 455.824 323.92C456.155 323.92 456.432 324.037 456.656 324.272C456.891 324.507 457.008 324.768 457.008 325.056C457.008 325.355 456.891 325.616 456.656 325.84C456.421 326.064 456.144 326.176 455.824 326.176Z" fill="#F1EFDC"/>
<path d="M398.41 278V271.77H400.27C400.637 271.77 400.953 271.807 401.22 271.88C401.493 271.953 401.717 272.06 401.89 272.2C402.07 272.34 402.203 272.507 402.29 272.7C402.377 272.887 402.42 273.093 402.42 273.32C402.42 273.5 402.383 273.683 402.31 273.87C402.243 274.05 402.143 274.213 402.01 274.36C401.883 274.5 401.72 274.607 401.52 274.68C401.693 274.747 401.85 274.833 401.99 274.94C402.13 275.047 402.25 275.17 402.35 275.31C402.45 275.443 402.527 275.587 402.58 275.74C402.64 275.893 402.67 276.053 402.67 276.22C402.67 276.487 402.62 276.73 402.52 276.95C402.42 277.17 402.27 277.36 402.07 277.52C401.87 277.673 401.62 277.793 401.32 277.88C401.02 277.96 400.667 278 400.26 278H398.41ZM399.39 277.17H400.37C400.63 277.17 400.853 277.137 401.04 277.07C401.227 276.997 401.37 276.887 401.47 276.74C401.577 276.593 401.63 276.407 401.63 276.18C401.63 275.967 401.583 275.78 401.49 275.62C401.403 275.453 401.257 275.323 401.05 275.23C400.843 275.137 400.563 275.09 400.21 275.09H399.39V277.17ZM399.39 274.29H400.17C400.49 274.29 400.74 274.253 400.92 274.18C401.107 274.107 401.237 274.003 401.31 273.87C401.39 273.737 401.43 273.587 401.43 273.42C401.43 273.293 401.407 273.18 401.36 273.08C401.32 272.98 401.253 272.893 401.16 272.82C401.067 272.74 400.947 272.68 400.8 272.64C400.653 272.6 400.48 272.58 400.28 272.58H399.39V274.29ZM405.51 278.11C405.017 278.11 404.597 277.987 404.25 277.74C403.91 277.493 403.653 277.13 403.48 276.65C403.307 276.17 403.22 275.587 403.22 274.9C403.22 274.227 403.307 273.653 403.48 273.18C403.653 272.7 403.91 272.333 404.25 272.08C404.597 271.827 405.017 271.7 405.51 271.7C406.01 271.7 406.43 271.827 406.77 272.08C407.11 272.333 407.367 272.7 407.54 273.18C407.72 273.653 407.81 274.227 407.81 274.9C407.81 275.587 407.72 276.17 407.54 276.65C407.367 277.13 407.11 277.493 406.77 277.74C406.43 277.987 406.01 278.11 405.51 278.11ZM405.51 277.3C405.783 277.3 406.017 277.21 406.21 277.03C406.403 276.85 406.553 276.583 406.66 276.23C406.767 275.87 406.82 275.423 406.82 274.89C406.82 274.39 406.767 273.963 406.66 273.61C406.553 273.257 406.403 272.987 406.21 272.8C406.017 272.607 405.783 272.51 405.51 272.51C405.237 272.51 405 272.607 404.8 272.8C404.607 272.987 404.46 273.257 404.36 273.61C404.26 273.963 404.21 274.39 404.21 274.89C404.21 275.423 404.26 275.87 404.36 276.23C404.46 276.583 404.607 276.85 404.8 277.03C405 277.21 405.237 277.3 405.51 277.3ZM409.96 278V272.61H408.26V271.76H412.71V272.61H410.93V278H409.96Z" fill="#F1EFDC"/>
<path d="M321.736 279.016V269.032H324.216C324.803 269.032 325.293 269.085 325.688 269.192C326.093 269.299 326.435 269.453 326.712 269.656C327 269.859 327.251 270.109 327.464 270.408C327.688 270.707 327.875 271.043 328.024 271.416C328.184 271.789 328.301 272.2 328.376 272.648C328.451 273.085 328.488 273.56 328.488 274.072C328.477 274.84 328.381 275.528 328.2 276.136C328.029 276.744 327.763 277.261 327.4 277.688C327.048 278.115 326.595 278.445 326.04 278.68C325.485 278.904 324.813 279.016 324.024 279.016H321.736ZM323.256 277.768H323.992C324.707 277.768 325.277 277.624 325.704 277.336C326.141 277.037 326.456 276.616 326.648 276.072C326.851 275.517 326.952 274.867 326.952 274.12C326.952 273.331 326.861 272.653 326.68 272.088C326.499 271.523 326.205 271.085 325.8 270.776C325.405 270.456 324.856 270.296 324.152 270.296H323.256V277.768ZM330.44 279V277.736H332.28V272.856H330.52V271.592H333.88V277.736H335.56V279H330.44ZM332.984 270.264C332.696 270.264 332.451 270.168 332.248 269.976C332.056 269.773 331.96 269.539 331.96 269.272C331.96 268.984 332.056 268.744 332.248 268.552C332.44 268.36 332.685 268.264 332.984 268.264C333.261 268.264 333.501 268.365 333.704 268.568C333.917 268.771 334.024 269.005 334.024 269.272C334.024 269.539 333.917 269.773 333.704 269.976C333.501 270.168 333.261 270.264 332.984 270.264ZM341.112 279.176C340.664 279.176 340.243 279.133 339.848 279.048C339.453 278.963 339.08 278.835 338.728 278.664C338.387 278.493 338.072 278.275 337.784 278.008L338.52 276.664L338.616 276.52L338.728 276.584C338.749 276.669 338.776 276.76 338.808 276.856C338.84 276.941 338.915 277.048 339.032 277.176C339.288 277.4 339.581 277.581 339.912 277.72C340.243 277.848 340.648 277.912 341.128 277.912C341.459 277.912 341.736 277.875 341.96 277.8C342.195 277.715 342.376 277.603 342.504 277.464C342.632 277.315 342.696 277.149 342.696 276.968C342.696 276.829 342.659 276.712 342.584 276.616C342.52 276.509 342.419 276.413 342.28 276.328C342.141 276.232 341.96 276.141 341.736 276.056C341.512 275.96 341.24 275.869 340.92 275.784C340.376 275.624 339.901 275.443 339.496 275.24C339.091 275.027 338.776 274.776 338.552 274.488C338.328 274.2 338.216 273.859 338.216 273.464C338.216 273.069 338.328 272.723 338.552 272.424C338.787 272.115 339.117 271.869 339.544 271.688C339.971 271.507 340.477 271.416 341.064 271.416C341.384 271.416 341.683 271.443 341.96 271.496C342.248 271.539 342.509 271.608 342.744 271.704C342.989 271.8 343.219 271.923 343.432 272.072C343.645 272.211 343.848 272.376 344.04 272.568L343.224 273.656L343.128 273.784L343.016 273.688C343.005 273.603 342.979 273.523 342.936 273.448C342.904 273.373 342.829 273.277 342.712 273.16C342.477 272.989 342.221 272.861 341.944 272.776C341.667 272.691 341.384 272.648 341.096 272.648C340.723 272.648 340.392 272.712 340.104 272.84C339.827 272.968 339.688 273.16 339.688 273.416C339.688 273.565 339.747 273.704 339.864 273.832C339.992 273.96 340.195 274.088 340.472 274.216C340.749 274.333 341.128 274.456 341.608 274.584C342.216 274.744 342.707 274.931 343.08 275.144C343.453 275.347 343.725 275.587 343.896 275.864C344.077 276.141 344.168 276.467 344.168 276.84C344.168 277.256 344.051 277.645 343.816 278.008C343.592 278.36 343.251 278.643 342.792 278.856C342.333 279.069 341.773 279.176 341.112 279.176ZM349.496 279.176C348.952 279.176 348.445 279.085 347.976 278.904C347.517 278.712 347.117 278.445 346.776 278.104C346.445 277.752 346.184 277.347 345.992 276.888C345.811 276.419 345.72 275.907 345.72 275.352C345.72 274.797 345.811 274.285 345.992 273.816C346.184 273.336 346.445 272.92 346.776 272.568C347.117 272.216 347.517 271.944 347.976 271.752C348.445 271.549 348.947 271.448 349.48 271.448C350.141 271.448 350.717 271.571 351.208 271.816C351.709 272.061 352.115 272.408 352.424 272.856L351.512 273.816L351.4 273.928L351.304 273.832C351.293 273.747 351.272 273.667 351.24 273.592C351.219 273.507 351.149 273.395 351.032 273.256C350.819 273.064 350.584 272.931 350.328 272.856C350.072 272.771 349.779 272.728 349.448 272.728C349.171 272.728 348.904 272.787 348.648 272.904C348.403 273.021 348.179 273.192 347.976 273.416C347.784 273.64 347.629 273.912 347.512 274.232C347.395 274.552 347.336 274.909 347.336 275.304C347.336 275.688 347.395 276.04 347.512 276.36C347.629 276.669 347.789 276.936 347.992 277.16C348.195 277.373 348.429 277.544 348.696 277.672C348.973 277.789 349.261 277.848 349.56 277.848C349.795 277.848 350.019 277.821 350.232 277.768C350.456 277.704 350.669 277.608 350.872 277.48C351.075 277.341 351.267 277.165 351.448 276.952L352.328 277.976C351.944 278.392 351.501 278.696 351 278.888C350.509 279.08 350.008 279.176 349.496 279.176ZM354.584 271.592H356.232L356.2 273.704L356.008 273.528C356.061 273.208 356.163 272.92 356.312 272.664C356.461 272.397 356.643 272.173 356.856 271.992C357.08 271.811 357.325 271.672 357.592 271.576C357.859 271.469 358.136 271.416 358.424 271.416C358.829 271.416 359.197 271.485 359.528 271.624C359.859 271.763 360.157 271.971 360.424 272.248L359.752 273.56L359.688 273.704L359.56 273.64C359.528 273.555 359.496 273.469 359.464 273.384C359.432 273.299 359.352 273.197 359.224 273.08C359.064 272.973 358.904 272.893 358.744 272.84C358.595 272.787 358.419 272.76 358.216 272.76C357.96 272.76 357.709 272.808 357.464 272.904C357.229 272.989 357.016 273.128 356.824 273.32C356.632 273.512 356.477 273.757 356.36 274.056C356.253 274.344 356.2 274.696 356.2 275.112V279.016H354.584V271.592ZM362.44 279V277.736H364.28V272.856H362.52V271.592H365.88V277.736H367.56V279H362.44ZM364.984 270.264C364.696 270.264 364.451 270.168 364.248 269.976C364.056 269.773 363.96 269.539 363.96 269.272C363.96 268.984 364.056 268.744 364.248 268.552C364.44 268.36 364.685 268.264 364.984 268.264C365.261 268.264 365.501 268.365 365.704 268.568C365.917 268.771 366.024 269.005 366.024 269.272C366.024 269.539 365.917 269.773 365.704 269.976C365.501 270.168 365.261 270.264 364.984 270.264ZM373.384 279.176C373.117 279.176 372.856 279.133 372.6 279.048C372.355 278.973 372.12 278.861 371.896 278.712C371.683 278.552 371.491 278.36 371.32 278.136L370.984 279H369.832V268.296H371.432H371.576V268.44C371.523 268.504 371.485 268.573 371.464 268.648C371.453 268.723 371.448 268.851 371.448 269.032V272.536C371.555 272.365 371.683 272.216 371.832 272.088C371.981 271.949 372.141 271.832 372.312 271.736C372.493 271.629 372.68 271.549 372.872 271.496C373.075 271.443 373.272 271.416 373.464 271.416C373.912 271.427 374.317 271.512 374.68 271.672C375.053 271.821 375.373 272.056 375.64 272.376C375.907 272.685 376.109 273.075 376.248 273.544C376.397 274.013 376.472 274.563 376.472 275.192C376.472 275.864 376.387 276.451 376.216 276.952C376.056 277.453 375.832 277.869 375.544 278.2C375.256 278.531 374.925 278.776 374.552 278.936C374.179 279.096 373.789 279.176 373.384 279.176ZM373.112 277.896C373.347 277.896 373.565 277.853 373.768 277.768C373.981 277.683 374.168 277.539 374.328 277.336C374.499 277.133 374.632 276.867 374.728 276.536C374.824 276.205 374.872 275.805 374.872 275.336C374.872 274.899 374.829 274.515 374.744 274.184C374.669 273.853 374.557 273.576 374.408 273.352C374.259 273.117 374.072 272.947 373.848 272.84C373.635 272.723 373.4 272.664 373.144 272.664C372.792 272.664 372.488 272.771 372.232 272.984C371.987 273.197 371.795 273.501 371.656 273.896C371.517 274.28 371.448 274.739 371.448 275.272C371.448 275.688 371.48 276.061 371.544 276.392C371.608 276.712 371.704 276.984 371.832 277.208C371.971 277.432 372.141 277.603 372.344 277.72C372.557 277.837 372.813 277.896 373.112 277.896ZM381.336 279.176C380.803 279.176 380.312 279.091 379.864 278.92C379.416 278.749 379.027 278.504 378.696 278.184C378.376 277.853 378.125 277.448 377.944 276.968C377.763 276.488 377.672 275.944 377.672 275.336C377.672 274.717 377.763 274.168 377.944 273.688C378.125 273.197 378.371 272.787 378.68 272.456C379 272.125 379.368 271.869 379.784 271.688C380.211 271.507 380.664 271.416 381.144 271.416C381.56 271.416 381.955 271.491 382.328 271.64C382.712 271.789 383.043 272.013 383.32 272.312C383.608 272.6 383.832 272.968 383.992 273.416C384.163 273.864 384.248 274.387 384.248 274.984C384.248 275.091 384.248 275.213 384.248 275.352C384.248 275.48 384.243 275.592 384.232 275.688H379.208C379.229 276.072 379.304 276.408 379.432 276.696C379.56 276.973 379.72 277.203 379.912 277.384C380.115 277.565 380.344 277.699 380.6 277.784C380.856 277.869 381.123 277.912 381.4 277.912C381.645 277.912 381.869 277.891 382.072 277.848C382.285 277.795 382.488 277.715 382.68 277.608C382.872 277.501 383.048 277.357 383.208 277.176L384.04 277.992C383.816 278.259 383.565 278.483 383.288 278.664C383.011 278.835 382.707 278.963 382.376 279.048C382.056 279.133 381.709 279.176 381.336 279.176ZM379.24 274.488H382.696C382.696 274.189 382.659 273.928 382.584 273.704C382.509 273.48 382.397 273.288 382.248 273.128C382.109 272.968 381.939 272.851 381.736 272.776C381.533 272.691 381.309 272.648 381.064 272.648C380.829 272.648 380.611 272.685 380.408 272.76C380.216 272.835 380.04 272.947 379.88 273.096C379.72 273.245 379.581 273.437 379.464 273.672C379.357 273.896 379.283 274.168 379.24 274.488Z" fill="#F1EFDC"/>
<circle cx="287.5" cy="286.5" r="21.5" fill="url(#paint1_linear_16_936)"/>
<path d="M283.104 293.024V278.048H286.824C287.704 278.048 288.44 278.128 289.032 278.288C289.64 278.448 290.152 278.68 290.568 278.984C291 279.288 291.376 279.664 291.696 280.112C292.032 280.56 292.312 281.064 292.536 281.624C292.776 282.184 292.952 282.8 293.064 283.472C293.176 284.128 293.232 284.84 293.232 285.608C293.216 286.76 293.072 287.792 292.8 288.704C292.544 289.616 292.144 290.392 291.6 291.032C291.072 291.672 290.392 292.168 289.56 292.52C288.728 292.856 287.72 293.024 286.536 293.024H283.104ZM285.384 291.152H286.488C287.56 291.152 288.416 290.936 289.056 290.504C289.712 290.056 290.184 289.424 290.472 288.608C290.776 287.776 290.928 286.8 290.928 285.68C290.928 284.496 290.792 283.48 290.52 282.632C290.248 281.784 289.808 281.128 289.2 280.664C288.608 280.184 287.784 279.944 286.728 279.944H285.384V291.152Z" fill="#F1EFDC"/>
<path d="M225.5 247.5V266.5V266.5C225.5 276.993 234.006 285.5 244.499 285.5C247.973 285.5 251.635 285.5 256 285.5" stroke="#520D3A" stroke-width="3"/>
<rect x="260" y="198" width="268" height="46" rx="8" fill="#520D3A"/>
<path fill-rule="evenodd" clip-rule="evenodd" d="M288 234C295.18 234 301 228.18 301 221C301 213.82 295.18 208 288 208C280.82 208 275 213.82 275 221C275 228.18 280.82 234 288 234ZM286.242 215.208L294.394 219.737C295.384 220.288 295.384 221.712 294.394 222.263L286.242 226.792C285.086 227.433 283.667 226.598 283.667 225.276V216.724C283.667 215.402 285.086 214.567 286.242 215.208Z" fill="white"/>
<line x1="322.5" y1="214" x2="322.5" y2="230" stroke="white" stroke-width="3"/>
<line x1="328.5" y1="214" x2="328.5" y2="230" stroke="white" stroke-width="3"/>
<line x1="334.5" y1="211" x2="334.5" y2="233" stroke="white" stroke-width="3"/>
<line x1="340.5" y1="211" x2="340.5" y2="233" stroke="white" stroke-width="3"/>
<line x1="346.5" y1="208" x2="346.5" y2="235" stroke="white" stroke-width="3"/>
<line x1="352.5" y1="208" x2="352.5" y2="235" stroke="white" stroke-width="3"/>
<line x1="370.5" y1="208" x2="370.5" y2="235" stroke="white" stroke-width="3"/>
<line x1="376.5" y1="208" x2="376.5" y2="235" stroke="white" stroke-width="3"/>
<line x1="370.5" y1="208" x2="370.5" y2="235" stroke="white" stroke-width="3"/>
<line x1="376.5" y1="208" x2="376.5" y2="235" stroke="white" stroke-width="3"/>
<line x1="382.5" y1="211" x2="382.5" y2="232" stroke="white" stroke-width="3"/>
<line x1="388.5" y1="211" x2="388.5" y2="232" stroke="white" stroke-width="3"/>
<line x1="394.5" y1="211" x2="394.5" y2="232" stroke="white" stroke-width="3"/>
<line x1="400.5" y1="211" x2="400.5" y2="232" stroke="white" stroke-width="3"/>
<line x1="406.5" y1="211" x2="406.5" y2="232" stroke="white" stroke-width="3"/>
<line x1="412.5" y1="211" x2="412.5" y2="232" stroke="white" stroke-width="3"/>
<line x1="418.5" y1="205" x2="418.5" y2="235" stroke="white" stroke-width="3"/>
<line x1="424.5" y1="205" x2="424.5" y2="235" stroke="white" stroke-width="3"/>
<line x1="430.5" y1="205" x2="430.5" y2="235" stroke="white" stroke-width="3"/>
<line x1="436.5" y1="205" x2="436.5" y2="235" stroke="white" stroke-width="3"/>
<line x1="442.5" y1="208" x2="442.5" y2="232" stroke="white" stroke-width="3"/>
<line x1="448.5" y1="208" x2="448.5" y2="232" stroke="white" stroke-width="3"/>
<line x1="454.5" y1="211" x2="454.5" y2="229" stroke="white" stroke-width="3"/>
<line x1="460.5" y1="211" x2="460.5" y2="229" stroke="white" stroke-width="3"/>
<line x1="466.5" y1="212" x2="466.5" y2="227" stroke="white" stroke-width="3"/>
<line x1="472.5" y1="212" x2="472.5" y2="227" stroke="white" stroke-width="3"/>
<line x1="478.5" y1="209" x2="478.5" y2="231" stroke="white" stroke-width="3"/>
<line x1="484.5" y1="209" x2="484.5" y2="231" stroke="white" stroke-width="3"/>
<line x1="490.5" y1="207" x2="490.5" y2="233" stroke="white" stroke-width="3"/>
<line x1="496.5" y1="207" x2="496.5" y2="233" stroke="white" stroke-width="3"/>
<line x1="502.5" y1="211" x2="502.5" y2="229" stroke="white" stroke-width="3"/>
<line x1="508.5" y1="211" x2="508.5" y2="229" stroke="white" stroke-width="3"/>
<line x1="502.5" y1="211" x2="502.5" y2="229" stroke="white" stroke-width="3"/>
<line x1="508.5" y1="211" x2="508.5" y2="229" stroke="white" stroke-width="3"/>
<line x1="358.5" y1="205" x2="358.5" y2="236" stroke="white" stroke-width="3"/>
<line x1="364.5" y1="205" x2="364.5" y2="236" stroke="white" stroke-width="3"/>
<circle cx="226.5" cy="219.5" r="21.5" fill="#520D3A"/>
<path d="M215.718 222.155C214.737 220.521 214.737 218.479 215.718 216.845C216.017 216.347 216.513 215.997 217.083 215.883L219.411 215.418C219.549 215.39 219.674 215.316 219.765 215.207L223.671 210.52C224.853 209.101 225.445 208.391 225.972 208.582C226.5 208.773 226.5 209.697 226.5 211.544L226.5 227.456C226.5 229.303 226.5 230.227 225.972 230.418C225.445 230.609 224.853 229.899 223.671 228.48L219.765 223.793C219.674 223.684 219.549 223.61 219.411 223.582L217.083 223.117C216.513 223.003 216.017 222.653 215.718 222.155Z" fill="white"/>
<path d="M229.986 214.639C231.269 215.921 231.993 217.659 232 219.473C232.007 221.287 231.297 223.03 230.025 224.323" stroke="white" stroke-width="2" stroke-linecap="round"/>
<path d="M235.653 211.722C237.705 213.774 238.863 216.554 238.875 219.457C238.886 222.359 237.75 225.148 235.714 227.217" stroke="white" stroke-width="2" stroke-linecap="round"/>
<rect x="260" y="14" width="481" height="92" rx="8" fill="#520D3A"/>
<circle cx="226.5" cy="35.5" r="21.5" fill="#520D3A"/>
<rect x="260" y="129" width="363" height="46" rx="8" fill="#520D3A"/>
<circle cx="226.5" cy="150.5" r="21.5" fill="#520D3A"/>
<path d="M182 352H759V428H182V352Z" fill="#390226"/>
<rect x="205" y="368" width="536" height="42" rx="8" fill="#520D3A"/>
<path d="M91 0H189V428H91V0Z" fill="#390226"/>
<rect x="91" y="14" width="83" height="20" rx="8" fill="#520D3A"/>
<rect x="91" y="41" width="83" height="20" rx="8" fill="#520D3A"/>
<rect x="91" y="73" width="83" height="171" rx="8" fill="#520D3A"/>
<rect x="91" y="256" width="83" height="155" rx="8" fill="#520D3A"/>
<path d="M0 16C0 7.16345 7.16344 0 16 0H91V428H16C7.16344 428 0 420.837 0 412V16Z" fill="#390226"/>
<circle cx="47.5" cy="35.5" r="21.5" fill="#520D3A"/>
<circle cx="47.5" cy="94.5" r="21.5" fill="#520D3A"/>
<circle cx="47.5" cy="153.5" r="21.5" fill="#520D3A"/>
<circle cx="47.5" cy="212.5" r="21.5" fill="#520D3A"/>
<circle cx="47.5" cy="271.5" r="21.5" fill="#520D3A"/>
<circle cx="47.5" cy="330.5" r="21.5" fill="#520D3A"/>
<circle cx="47.5" cy="389.5" r="21.5" fill="#520D3A"/>
<path d="M759 0H950C958.837 0 966 7.16344 966 16V412C966 420.837 958.837 428 950 428H759V0Z" fill="#390226"/>
<rect x="778" y="16" width="169" height="20" rx="8" fill="#520D3A"/>
<rect x="833" y="73" width="117" height="20" rx="8" fill="#520D3A"/>
<circle cx="802.5" cy="150.5" r="21.5" fill="#520D3A"/>
<rect x="833" y="141" width="117" height="20" rx="8" fill="#520D3A"/>
<circle cx="802.5" cy="218.5" r="21.5" fill="#520D3A"/>
<rect x="833" y="209" width="117" height="20" rx="8" fill="#520D3A"/>
<circle cx="802.5" cy="286.5" r="21.5" fill="#520D3A"/>
<rect x="833" y="277" width="117" height="20" rx="8" fill="#520D3A"/>
<circle cx="802.5" cy="354.5" r="21.5" fill="#520D3A"/>
<rect x="833" y="345" width="117" height="20" rx="8" fill="#520D3A"/>
<circle cx="802.5" cy="82.5" r="21.5" fill="#520D3A"/>
<defs>
<linearGradient id="paint0_linear_16_936" x1="321" y1="287" x2="689.758" y2="330.583" gradientUnits="userSpaceOnUse">
<stop stop-color="#F0E476"/>
<stop offset="1" stop-color="#FF71CD"/>
<stop offset="1" stop-color="#FF71CD"/>
</linearGradient>
<linearGradient id="paint1_linear_16_936" x1="266" y1="265" x2="309" y2="308" gradientUnits="userSpaceOnUse">
<stop stop-color="#F0E476"/>
<stop offset="0.931922" stop-color="#FF71CD"/>
</linearGradient>
</defs>
</svg>
