<svg width="577" height="593" viewBox="0 0 577 593" fill="none" xmlns="http://www.w3.org/2000/svg">
<rect width="577" height="593" rx="16" fill="#42032C"/>
<path d="M0 517H577V577C577 585.837 569.837 593 561 593H16C7.16344 593 0 585.837 0 577V517Z" fill="#390226"/>
<rect x="23" y="533" width="536" height="42" rx="8" fill="#520D3A"/>
<rect x="139" y="452" width="368" height="50" rx="8" fill="url(#paint0_linear_31_121)" fill-opacity="0.5"/>
<rect x="207" y="433" width="34" height="13" rx="6.5" fill="#6E62FF" fill-opacity="0.65"/>
<path d="M153.136 474V465.376H150.416V464.016H157.536V465.376H154.688V474H153.136ZM158.976 463.296H160.544H160.704V463.44C160.64 463.504 160.597 463.573 160.576 463.648C160.565 463.723 160.56 463.851 160.56 464.032V467.68C160.741 467.413 160.955 467.189 161.2 467.008C161.456 466.816 161.717 466.672 161.984 466.576C162.261 466.469 162.539 466.416 162.816 466.416C163.285 466.416 163.691 466.523 164.032 466.736C164.384 466.949 164.656 467.285 164.848 467.744C165.04 468.192 165.136 468.789 165.136 469.536V474H163.568V469.552C163.568 469.093 163.52 468.731 163.424 468.464C163.328 468.187 163.195 467.989 163.024 467.872C162.853 467.744 162.651 467.68 162.416 467.68C162.224 467.68 162.037 467.712 161.856 467.776C161.685 467.84 161.52 467.931 161.36 468.048C161.2 468.155 161.061 468.293 160.944 468.464C160.827 468.635 160.731 468.827 160.656 469.04C160.592 469.253 160.56 469.488 160.56 469.744V474H158.976V463.296ZM167.44 474V472.736H169.28V467.856H167.52V466.592H170.88V472.736H172.56V474H167.44ZM169.984 465.264C169.696 465.264 169.451 465.168 169.248 464.976C169.056 464.773 168.96 464.539 168.96 464.272C168.96 463.984 169.056 463.744 169.248 463.552C169.44 463.36 169.685 463.264 169.984 463.264C170.261 463.264 170.501 463.365 170.704 463.568C170.917 463.771 171.024 464.005 171.024 464.272C171.024 464.539 170.917 464.773 170.704 464.976C170.501 465.168 170.261 465.264 169.984 465.264ZM178.112 474.176C177.664 474.176 177.243 474.133 176.848 474.048C176.453 473.963 176.08 473.835 175.728 473.664C175.387 473.493 175.072 473.275 174.784 473.008L175.52 471.664L175.616 471.52L175.728 471.584C175.749 471.669 175.776 471.76 175.808 471.856C175.84 471.941 175.915 472.048 176.032 472.176C176.288 472.4 176.581 472.581 176.912 472.72C177.243 472.848 177.648 472.912 178.128 472.912C178.459 472.912 178.736 472.875 178.96 472.8C179.195 472.715 179.376 472.603 179.504 472.464C179.632 472.315 179.696 472.149 179.696 471.968C179.696 471.829 179.659 471.712 179.584 471.616C179.52 471.509 179.419 471.413 179.28 471.328C179.141 471.232 178.96 471.141 178.736 471.056C178.512 470.96 178.24 470.869 177.92 470.784C177.376 470.624 176.901 470.443 176.496 470.24C176.091 470.027 175.776 469.776 175.552 469.488C175.328 469.2 175.216 468.859 175.216 468.464C175.216 468.069 175.328 467.723 175.552 467.424C175.787 467.115 176.117 466.869 176.544 466.688C176.971 466.507 177.477 466.416 178.064 466.416C178.384 466.416 178.683 466.443 178.96 466.496C179.248 466.539 179.509 466.608 179.744 466.704C179.989 466.8 180.219 466.923 180.432 467.072C180.645 467.211 180.848 467.376 181.04 467.568L180.224 468.656L180.128 468.784L180.016 468.688C180.005 468.603 179.979 468.523 179.936 468.448C179.904 468.373 179.829 468.277 179.712 468.16C179.477 467.989 179.221 467.861 178.944 467.776C178.667 467.691 178.384 467.648 178.096 467.648C177.723 467.648 177.392 467.712 177.104 467.84C176.827 467.968 176.688 468.16 176.688 468.416C176.688 468.565 176.747 468.704 176.864 468.832C176.992 468.96 177.195 469.088 177.472 469.216C177.749 469.333 178.128 469.456 178.608 469.584C179.216 469.744 179.707 469.931 180.08 470.144C180.453 470.347 180.725 470.587 180.896 470.864C181.077 471.141 181.168 471.467 181.168 471.84C181.168 472.256 181.051 472.645 180.816 473.008C180.592 473.36 180.251 473.643 179.792 473.856C179.333 474.069 178.773 474.176 178.112 474.176ZM191.44 474V472.736H193.28V467.856H191.52V466.592H194.88V472.736H196.56V474H191.44ZM193.984 465.264C193.696 465.264 193.451 465.168 193.248 464.976C193.056 464.773 192.96 464.539 192.96 464.272C192.96 463.984 193.056 463.744 193.248 463.552C193.44 463.36 193.685 463.264 193.984 463.264C194.261 463.264 194.501 463.365 194.704 463.568C194.917 463.771 195.024 464.005 195.024 464.272C195.024 464.539 194.917 464.773 194.704 464.976C194.501 465.168 194.261 465.264 193.984 465.264ZM202.112 474.176C201.664 474.176 201.243 474.133 200.848 474.048C200.453 473.963 200.08 473.835 199.728 473.664C199.387 473.493 199.072 473.275 198.784 473.008L199.52 471.664L199.616 471.52L199.728 471.584C199.749 471.669 199.776 471.76 199.808 471.856C199.84 471.941 199.915 472.048 200.032 472.176C200.288 472.4 200.581 472.581 200.912 472.72C201.243 472.848 201.648 472.912 202.128 472.912C202.459 472.912 202.736 472.875 202.96 472.8C203.195 472.715 203.376 472.603 203.504 472.464C203.632 472.315 203.696 472.149 203.696 471.968C203.696 471.829 203.659 471.712 203.584 471.616C203.52 471.509 203.419 471.413 203.28 471.328C203.141 471.232 202.96 471.141 202.736 471.056C202.512 470.96 202.24 470.869 201.92 470.784C201.376 470.624 200.901 470.443 200.496 470.24C200.091 470.027 199.776 469.776 199.552 469.488C199.328 469.2 199.216 468.859 199.216 468.464C199.216 468.069 199.328 467.723 199.552 467.424C199.787 467.115 200.117 466.869 200.544 466.688C200.971 466.507 201.477 466.416 202.064 466.416C202.384 466.416 202.683 466.443 202.96 466.496C203.248 466.539 203.509 466.608 203.744 466.704C203.989 466.8 204.219 466.923 204.432 467.072C204.645 467.211 204.848 467.376 205.04 467.568L204.224 468.656L204.128 468.784L204.016 468.688C204.005 468.603 203.979 468.523 203.936 468.448C203.904 468.373 203.829 468.277 203.712 468.16C203.477 467.989 203.221 467.861 202.944 467.776C202.667 467.691 202.384 467.648 202.096 467.648C201.723 467.648 201.392 467.712 201.104 467.84C200.827 467.968 200.688 468.16 200.688 468.416C200.688 468.565 200.747 468.704 200.864 468.832C200.992 468.96 201.195 469.088 201.472 469.216C201.749 469.333 202.128 469.456 202.608 469.584C203.216 469.744 203.707 469.931 204.08 470.144C204.453 470.347 204.725 470.587 204.896 470.864C205.077 471.141 205.168 471.467 205.168 471.84C205.168 472.256 205.051 472.645 204.816 473.008C204.592 473.36 204.251 473.643 203.792 473.856C203.333 474.069 202.773 474.176 202.112 474.176ZM217.232 474.176C216.411 474.176 215.771 473.989 215.312 473.616C214.864 473.232 214.64 472.736 214.64 472.128C214.64 471.723 214.731 471.36 214.912 471.04C215.104 470.709 215.371 470.427 215.712 470.192C216.064 469.957 216.485 469.776 216.976 469.648C217.467 469.509 218.021 469.44 218.64 469.44C218.768 469.44 218.901 469.445 219.04 469.456C219.189 469.456 219.344 469.461 219.504 469.472C219.675 469.483 219.845 469.493 220.016 469.504L220.064 470.64C219.915 470.619 219.755 470.603 219.584 470.592C219.424 470.581 219.264 470.576 219.104 470.576C218.944 470.576 218.795 470.576 218.656 470.576C218.24 470.576 217.877 470.608 217.568 470.672C217.269 470.725 217.019 470.811 216.816 470.928C216.624 471.045 216.48 471.189 216.384 471.36C216.288 471.531 216.24 471.728 216.24 471.952C216.24 472.133 216.272 472.293 216.336 472.432C216.4 472.56 216.485 472.661 216.592 472.736C216.709 472.811 216.843 472.869 216.992 472.912C217.152 472.944 217.323 472.96 217.504 472.96C217.856 472.96 218.165 472.901 218.432 472.784C218.699 472.667 218.923 472.496 219.104 472.272C219.296 472.037 219.44 471.749 219.536 471.408C219.632 471.056 219.68 470.645 219.68 470.176C219.68 469.525 219.605 469.019 219.456 468.656C219.317 468.293 219.109 468.043 218.832 467.904C218.555 467.765 218.208 467.696 217.792 467.696C217.451 467.696 217.12 467.755 216.8 467.872C216.491 467.979 216.187 468.181 215.888 468.48L215.04 467.52C215.445 467.136 215.888 466.859 216.368 466.688C216.859 466.517 217.36 466.432 217.872 466.432C218.341 466.432 218.773 466.491 219.168 466.608C219.573 466.715 219.925 466.896 220.224 467.152C220.533 467.408 220.768 467.755 220.928 468.192C221.099 468.629 221.184 469.184 221.184 469.856V474H219.52V473.088C219.381 473.301 219.227 473.483 219.056 473.632C218.885 473.771 218.699 473.883 218.496 473.968C218.304 474.043 218.101 474.096 217.888 474.128C217.675 474.16 217.456 474.176 217.232 474.176ZM233.648 474.176C233.253 474.176 232.869 474.096 232.496 473.936C232.133 473.765 231.808 473.52 231.52 473.2C231.232 472.88 231.003 472.475 230.832 471.984C230.672 471.483 230.592 470.907 230.592 470.256C230.592 469.595 230.672 469.024 230.832 468.544C231.003 468.064 231.232 467.669 231.52 467.36C231.808 467.04 232.139 466.805 232.512 466.656C232.885 466.496 233.275 466.416 233.68 466.416C233.968 466.416 234.229 466.453 234.464 466.528C234.709 466.603 234.928 466.715 235.12 466.864C235.312 467.013 235.467 467.2 235.584 467.424V463.296H237.136H237.28V463.44C237.227 463.504 237.189 463.573 237.168 463.648C237.147 463.723 237.141 463.851 237.152 464.032V472.96C237.152 473.131 237.157 473.307 237.168 473.488C237.189 473.659 237.237 473.829 237.312 474H235.744C235.691 473.883 235.653 473.776 235.632 473.68C235.611 473.584 235.6 473.488 235.6 473.392C235.6 473.296 235.6 473.195 235.6 473.088C235.451 473.312 235.28 473.509 235.088 473.68C234.896 473.84 234.677 473.963 234.432 474.048C234.187 474.133 233.925 474.176 233.648 474.176ZM233.92 472.864C234.208 472.864 234.453 472.805 234.656 472.688C234.859 472.571 235.024 472.4 235.152 472.176C235.28 471.952 235.376 471.68 235.44 471.36C235.504 471.04 235.536 470.677 235.536 470.272C235.536 469.728 235.477 469.264 235.36 468.88C235.243 468.485 235.056 468.187 234.8 467.984C234.555 467.771 234.24 467.664 233.856 467.664C233.579 467.664 233.333 467.723 233.12 467.84C232.907 467.957 232.725 468.128 232.576 468.352C232.437 468.565 232.331 468.827 232.256 469.136C232.181 469.445 232.144 469.792 232.144 470.176C232.144 470.72 232.219 471.195 232.368 471.6C232.528 472.005 232.741 472.32 233.008 472.544C233.275 472.757 233.579 472.864 233.92 472.864ZM242.336 474.176C241.803 474.176 241.312 474.091 240.864 473.92C240.416 473.749 240.027 473.504 239.696 473.184C239.376 472.853 239.125 472.448 238.944 471.968C238.763 471.488 238.672 470.944 238.672 470.336C238.672 469.717 238.763 469.168 238.944 468.688C239.125 468.197 239.371 467.787 239.68 467.456C240 467.125 240.368 466.869 240.784 466.688C241.211 466.507 241.664 466.416 242.144 466.416C242.56 466.416 242.955 466.491 243.328 466.64C243.712 466.789 244.043 467.013 244.32 467.312C244.608 467.6 244.832 467.968 244.992 468.416C245.163 468.864 245.248 469.387 245.248 469.984C245.248 470.091 245.248 470.213 245.248 470.352C245.248 470.48 245.243 470.592 245.232 470.688H240.208C240.229 471.072 240.304 471.408 240.432 471.696C240.56 471.973 240.72 472.203 240.912 472.384C241.115 472.565 241.344 472.699 241.6 472.784C241.856 472.869 242.123 472.912 242.4 472.912C242.645 472.912 242.869 472.891 243.072 472.848C243.285 472.795 243.488 472.715 243.68 472.608C243.872 472.501 244.048 472.357 244.208 472.176L245.04 472.992C244.816 473.259 244.565 473.483 244.288 473.664C244.011 473.835 243.707 473.963 243.376 474.048C243.056 474.133 242.709 474.176 242.336 474.176ZM240.24 469.488H243.696C243.696 469.189 243.659 468.928 243.584 468.704C243.509 468.48 243.397 468.288 243.248 468.128C243.109 467.968 242.939 467.851 242.736 467.776C242.533 467.691 242.309 467.648 242.064 467.648C241.829 467.648 241.611 467.685 241.408 467.76C241.216 467.835 241.04 467.947 240.88 468.096C240.72 468.245 240.581 468.437 240.464 468.672C240.357 468.896 240.283 469.168 240.24 469.488ZM246.528 474V466.592H247.888V467.2C248.005 467.029 248.133 466.891 248.272 466.784C248.421 466.667 248.576 466.576 248.736 466.512C248.907 466.448 249.077 466.416 249.248 466.416C249.44 466.416 249.621 466.453 249.792 466.528C249.963 466.603 250.112 466.709 250.24 466.848C250.368 466.987 250.464 467.168 250.528 467.392C250.635 467.179 250.763 467.003 250.912 466.864C251.072 466.725 251.253 466.619 251.456 466.544C251.669 466.459 251.893 466.416 252.128 466.416C252.384 466.416 252.603 466.469 252.784 466.576C252.976 466.672 253.131 466.811 253.248 466.992C253.376 467.163 253.467 467.376 253.52 467.632C253.584 467.877 253.611 468.155 253.6 468.464V474H252.208V468.88C252.208 468.507 252.187 468.229 252.144 468.048C252.101 467.867 252.037 467.744 251.952 467.68C251.877 467.616 251.787 467.584 251.68 467.584C251.52 467.584 251.365 467.659 251.216 467.808C251.077 467.947 250.96 468.139 250.864 468.384C250.779 468.629 250.736 468.901 250.736 469.2V474H249.392V468.944C249.392 468.389 249.344 468.021 249.248 467.84C249.163 467.659 249.008 467.568 248.784 467.568C248.677 467.568 248.571 467.605 248.464 467.68C248.368 467.744 248.277 467.845 248.192 467.984C248.107 468.112 248.037 468.272 247.984 468.464C247.941 468.656 247.92 468.88 247.92 469.136V474H246.528ZM258 474.16C257.328 474.16 256.731 474 256.208 473.68C255.685 473.349 255.269 472.896 254.96 472.32C254.651 471.733 254.496 471.061 254.496 470.304C254.496 469.557 254.651 468.896 254.96 468.32C255.269 467.733 255.685 467.275 256.208 466.944C256.731 466.603 257.328 466.432 258 466.432C258.661 466.432 259.253 466.603 259.776 466.944C260.309 467.275 260.731 467.733 261.04 468.32C261.349 468.896 261.504 469.557 261.504 470.304C261.504 471.051 261.349 471.717 261.04 472.304C260.731 472.88 260.309 473.333 259.776 473.664C259.253 473.995 258.661 474.16 258 474.16ZM258 472.864C258.363 472.864 258.683 472.757 258.96 472.544C259.248 472.32 259.472 472.016 259.632 471.632C259.792 471.248 259.872 470.8 259.872 470.288C259.872 469.765 259.792 469.312 259.632 468.928C259.472 468.544 259.248 468.245 258.96 468.032C258.683 467.819 258.363 467.712 258 467.712C257.637 467.712 257.312 467.819 257.024 468.032C256.747 468.245 256.528 468.544 256.368 468.928C256.208 469.312 256.128 469.765 256.128 470.288C256.128 470.8 256.208 471.248 256.368 471.632C256.528 472.016 256.747 472.32 257.024 472.544C257.312 472.757 257.637 472.864 258 472.864ZM274 474.16C273.328 474.16 272.731 474 272.208 473.68C271.685 473.349 271.269 472.896 270.96 472.32C270.651 471.733 270.496 471.061 270.496 470.304C270.496 469.557 270.651 468.896 270.96 468.32C271.269 467.733 271.685 467.275 272.208 466.944C272.731 466.603 273.328 466.432 274 466.432C274.661 466.432 275.253 466.603 275.776 466.944C276.309 467.275 276.731 467.733 277.04 468.32C277.349 468.896 277.504 469.557 277.504 470.304C277.504 471.051 277.349 471.717 277.04 472.304C276.731 472.88 276.309 473.333 275.776 473.664C275.253 473.995 274.661 474.16 274 474.16ZM274 472.864C274.363 472.864 274.683 472.757 274.96 472.544C275.248 472.32 275.472 472.016 275.632 471.632C275.792 471.248 275.872 470.8 275.872 470.288C275.872 469.765 275.792 469.312 275.632 468.928C275.472 468.544 275.248 468.245 274.96 468.032C274.683 467.819 274.363 467.712 274 467.712C273.637 467.712 273.312 467.819 273.024 468.032C272.747 468.245 272.528 468.544 272.368 468.928C272.208 469.312 272.128 469.765 272.128 470.288C272.128 470.8 272.208 471.248 272.368 471.632C272.528 472.016 272.747 472.32 273.024 472.544C273.312 472.757 273.637 472.864 274 472.864ZM280.336 467.856H278.752V466.592H280.336V466.096C280.336 465.435 280.469 464.891 280.736 464.464C281.013 464.027 281.376 463.707 281.824 463.504C282.272 463.291 282.763 463.184 283.296 463.184C283.787 463.184 284.24 463.269 284.656 463.44C285.072 463.611 285.429 463.867 285.728 464.208L285.056 465.312L284.976 465.44L284.864 465.376C284.843 465.291 284.811 465.205 284.768 465.12C284.736 465.035 284.656 464.933 284.528 464.816C284.347 464.677 284.171 464.581 284 464.528C283.829 464.475 283.621 464.448 283.376 464.448C283.077 464.448 282.816 464.507 282.592 464.624C282.379 464.731 282.208 464.907 282.08 465.152C281.963 465.387 281.904 465.701 281.904 466.096V466.592H284.208V467.856H281.904V474H280.336V467.856ZM294.736 474.016V464.032H297.216C297.803 464.032 298.293 464.085 298.688 464.192C299.093 464.299 299.435 464.453 299.712 464.656C300 464.859 300.251 465.109 300.464 465.408C300.688 465.707 300.875 466.043 301.024 466.416C301.184 466.789 301.301 467.2 301.376 467.648C301.451 468.085 301.488 468.56 301.488 469.072C301.477 469.84 301.381 470.528 301.2 471.136C301.029 471.744 300.763 472.261 300.4 472.688C300.048 473.115 299.595 473.445 299.04 473.68C298.485 473.904 297.813 474.016 297.024 474.016H294.736ZM296.256 472.768H296.992C297.707 472.768 298.277 472.624 298.704 472.336C299.141 472.037 299.456 471.616 299.648 471.072C299.851 470.517 299.952 469.867 299.952 469.12C299.952 468.331 299.861 467.653 299.68 467.088C299.499 466.523 299.205 466.085 298.8 465.776C298.405 465.456 297.856 465.296 297.152 465.296H296.256V472.768ZM303.44 474V472.736H305.28V467.856H303.52V466.592H306.88V472.736H308.56V474H303.44ZM305.984 465.264C305.696 465.264 305.451 465.168 305.248 464.976C305.056 464.773 304.96 464.539 304.96 464.272C304.96 463.984 305.056 463.744 305.248 463.552C305.44 463.36 305.685 463.264 305.984 463.264C306.261 463.264 306.501 463.365 306.704 463.568C306.917 463.771 307.024 464.005 307.024 464.272C307.024 464.539 306.917 464.773 306.704 464.976C306.501 465.168 306.261 465.264 305.984 465.264ZM314.112 474.176C313.664 474.176 313.243 474.133 312.848 474.048C312.453 473.963 312.08 473.835 311.728 473.664C311.387 473.493 311.072 473.275 310.784 473.008L311.52 471.664L311.616 471.52L311.728 471.584C311.749 471.669 311.776 471.76 311.808 471.856C311.84 471.941 311.915 472.048 312.032 472.176C312.288 472.4 312.581 472.581 312.912 472.72C313.243 472.848 313.648 472.912 314.128 472.912C314.459 472.912 314.736 472.875 314.96 472.8C315.195 472.715 315.376 472.603 315.504 472.464C315.632 472.315 315.696 472.149 315.696 471.968C315.696 471.829 315.659 471.712 315.584 471.616C315.52 471.509 315.419 471.413 315.28 471.328C315.141 471.232 314.96 471.141 314.736 471.056C314.512 470.96 314.24 470.869 313.92 470.784C313.376 470.624 312.901 470.443 312.496 470.24C312.091 470.027 311.776 469.776 311.552 469.488C311.328 469.2 311.216 468.859 311.216 468.464C311.216 468.069 311.328 467.723 311.552 467.424C311.787 467.115 312.117 466.869 312.544 466.688C312.971 466.507 313.477 466.416 314.064 466.416C314.384 466.416 314.683 466.443 314.96 466.496C315.248 466.539 315.509 466.608 315.744 466.704C315.989 466.8 316.219 466.923 316.432 467.072C316.645 467.211 316.848 467.376 317.04 467.568L316.224 468.656L316.128 468.784L316.016 468.688C316.005 468.603 315.979 468.523 315.936 468.448C315.904 468.373 315.829 468.277 315.712 468.16C315.477 467.989 315.221 467.861 314.944 467.776C314.667 467.691 314.384 467.648 314.096 467.648C313.723 467.648 313.392 467.712 313.104 467.84C312.827 467.968 312.688 468.16 312.688 468.416C312.688 468.565 312.747 468.704 312.864 468.832C312.992 468.96 313.195 469.088 313.472 469.216C313.749 469.333 314.128 469.456 314.608 469.584C315.216 469.744 315.707 469.931 316.08 470.144C316.453 470.347 316.725 470.587 316.896 470.864C317.077 471.141 317.168 471.467 317.168 471.84C317.168 472.256 317.051 472.645 316.816 473.008C316.592 473.36 316.251 473.643 315.792 473.856C315.333 474.069 314.773 474.176 314.112 474.176ZM322.496 474.176C321.952 474.176 321.445 474.085 320.976 473.904C320.517 473.712 320.117 473.445 319.776 473.104C319.445 472.752 319.184 472.347 318.992 471.888C318.811 471.419 318.72 470.907 318.72 470.352C318.72 469.797 318.811 469.285 318.992 468.816C319.184 468.336 319.445 467.92 319.776 467.568C320.117 467.216 320.517 466.944 320.976 466.752C321.445 466.549 321.947 466.448 322.48 466.448C323.141 466.448 323.717 466.571 324.208 466.816C324.709 467.061 325.115 467.408 325.424 467.856L324.512 468.816L324.4 468.928L324.304 468.832C324.293 468.747 324.272 468.667 324.24 468.592C324.219 468.507 324.149 468.395 324.032 468.256C323.819 468.064 323.584 467.931 323.328 467.856C323.072 467.771 322.779 467.728 322.448 467.728C322.171 467.728 321.904 467.787 321.648 467.904C321.403 468.021 321.179 468.192 320.976 468.416C320.784 468.64 320.629 468.912 320.512 469.232C320.395 469.552 320.336 469.909 320.336 470.304C320.336 470.688 320.395 471.04 320.512 471.36C320.629 471.669 320.789 471.936 320.992 472.16C321.195 472.373 321.429 472.544 321.696 472.672C321.973 472.789 322.261 472.848 322.56 472.848C322.795 472.848 323.019 472.821 323.232 472.768C323.456 472.704 323.669 472.608 323.872 472.48C324.075 472.341 324.267 472.165 324.448 471.952L325.328 472.976C324.944 473.392 324.501 473.696 324 473.888C323.509 474.08 323.008 474.176 322.496 474.176ZM327.584 466.592H329.232L329.2 468.704L329.008 468.528C329.061 468.208 329.163 467.92 329.312 467.664C329.461 467.397 329.643 467.173 329.856 466.992C330.08 466.811 330.325 466.672 330.592 466.576C330.859 466.469 331.136 466.416 331.424 466.416C331.829 466.416 332.197 466.485 332.528 466.624C332.859 466.763 333.157 466.971 333.424 467.248L332.752 468.56L332.688 468.704L332.56 468.64C332.528 468.555 332.496 468.469 332.464 468.384C332.432 468.299 332.352 468.197 332.224 468.08C332.064 467.973 331.904 467.893 331.744 467.84C331.595 467.787 331.419 467.76 331.216 467.76C330.96 467.76 330.709 467.808 330.464 467.904C330.229 467.989 330.016 468.128 329.824 468.32C329.632 468.512 329.477 468.757 329.36 469.056C329.253 469.344 329.2 469.696 329.2 470.112V474.016H327.584V466.592ZM335.44 474V472.736H337.28V467.856H335.52V466.592H338.88V472.736H340.56V474H335.44ZM337.984 465.264C337.696 465.264 337.451 465.168 337.248 464.976C337.056 464.773 336.96 464.539 336.96 464.272C336.96 463.984 337.056 463.744 337.248 463.552C337.44 463.36 337.685 463.264 337.984 463.264C338.261 463.264 338.501 463.365 338.704 463.568C338.917 463.771 339.024 464.005 339.024 464.272C339.024 464.539 338.917 464.773 338.704 464.976C338.501 465.168 338.261 465.264 337.984 465.264ZM346.384 474.176C346.117 474.176 345.856 474.133 345.6 474.048C345.355 473.973 345.12 473.861 344.896 473.712C344.683 473.552 344.491 473.36 344.32 473.136L343.984 474H342.832V463.296H344.432H344.576V463.44C344.523 463.504 344.485 463.573 344.464 463.648C344.453 463.723 344.448 463.851 344.448 464.032V467.536C344.555 467.365 344.683 467.216 344.832 467.088C344.981 466.949 345.141 466.832 345.312 466.736C345.493 466.629 345.68 466.549 345.872 466.496C346.075 466.443 346.272 466.416 346.464 466.416C346.912 466.427 347.317 466.512 347.68 466.672C348.053 466.821 348.373 467.056 348.64 467.376C348.907 467.685 349.109 468.075 349.248 468.544C349.397 469.013 349.472 469.563 349.472 470.192C349.472 470.864 349.387 471.451 349.216 471.952C349.056 472.453 348.832 472.869 348.544 473.2C348.256 473.531 347.925 473.776 347.552 473.936C347.179 474.096 346.789 474.176 346.384 474.176ZM346.112 472.896C346.347 472.896 346.565 472.853 346.768 472.768C346.981 472.683 347.168 472.539 347.328 472.336C347.499 472.133 347.632 471.867 347.728 471.536C347.824 471.205 347.872 470.805 347.872 470.336C347.872 469.899 347.829 469.515 347.744 469.184C347.669 468.853 347.557 468.576 347.408 468.352C347.259 468.117 347.072 467.947 346.848 467.84C346.635 467.723 346.4 467.664 346.144 467.664C345.792 467.664 345.488 467.771 345.232 467.984C344.987 468.197 344.795 468.501 344.656 468.896C344.517 469.28 344.448 469.739 344.448 470.272C344.448 470.688 344.48 471.061 344.544 471.392C344.608 471.712 344.704 471.984 344.832 472.208C344.971 472.432 345.141 472.603 345.344 472.72C345.557 472.837 345.813 472.896 346.112 472.896ZM354.336 474.176C353.803 474.176 353.312 474.091 352.864 473.92C352.416 473.749 352.027 473.504 351.696 473.184C351.376 472.853 351.125 472.448 350.944 471.968C350.763 471.488 350.672 470.944 350.672 470.336C350.672 469.717 350.763 469.168 350.944 468.688C351.125 468.197 351.371 467.787 351.68 467.456C352 467.125 352.368 466.869 352.784 466.688C353.211 466.507 353.664 466.416 354.144 466.416C354.56 466.416 354.955 466.491 355.328 466.64C355.712 466.789 356.043 467.013 356.32 467.312C356.608 467.6 356.832 467.968 356.992 468.416C357.163 468.864 357.248 469.387 357.248 469.984C357.248 470.091 357.248 470.213 357.248 470.352C357.248 470.48 357.243 470.592 357.232 470.688H352.208C352.229 471.072 352.304 471.408 352.432 471.696C352.56 471.973 352.72 472.203 352.912 472.384C353.115 472.565 353.344 472.699 353.6 472.784C353.856 472.869 354.123 472.912 354.4 472.912C354.645 472.912 354.869 472.891 355.072 472.848C355.285 472.795 355.488 472.715 355.68 472.608C355.872 472.501 356.048 472.357 356.208 472.176L357.04 472.992C356.816 473.259 356.565 473.483 356.288 473.664C356.011 473.835 355.707 473.963 355.376 474.048C355.056 474.133 354.709 474.176 354.336 474.176ZM352.24 469.488H355.696C355.696 469.189 355.659 468.928 355.584 468.704C355.509 468.48 355.397 468.288 355.248 468.128C355.109 467.968 354.939 467.851 354.736 467.776C354.533 467.691 354.309 467.648 354.064 467.648C353.829 467.648 353.611 467.685 353.408 467.76C353.216 467.835 353.04 467.947 352.88 468.096C352.72 468.245 352.581 468.437 352.464 468.672C352.357 468.896 352.283 469.168 352.24 469.488ZM361.344 476.72L360.496 476.016C360.795 475.739 361.029 475.456 361.2 475.168C361.371 474.88 361.456 474.64 361.456 474.448C361.456 474.331 361.419 474.219 361.344 474.112C361.269 474.016 361.179 473.92 361.072 473.824C360.976 473.728 360.891 473.616 360.816 473.488C360.741 473.349 360.704 473.195 360.704 473.024C360.704 472.704 360.811 472.448 361.024 472.256C361.248 472.064 361.52 471.968 361.84 471.968C362.203 471.968 362.501 472.112 362.736 472.4C362.981 472.677 363.104 473.04 363.104 473.488C363.104 473.723 363.067 473.963 362.992 474.208C362.917 474.464 362.805 474.725 362.656 474.992C362.517 475.269 362.336 475.547 362.112 475.824C361.899 476.112 361.643 476.411 361.344 476.72ZM377.232 474.176C376.411 474.176 375.771 473.989 375.312 473.616C374.864 473.232 374.64 472.736 374.64 472.128C374.64 471.723 374.731 471.36 374.912 471.04C375.104 470.709 375.371 470.427 375.712 470.192C376.064 469.957 376.485 469.776 376.976 469.648C377.467 469.509 378.021 469.44 378.64 469.44C378.768 469.44 378.901 469.445 379.04 469.456C379.189 469.456 379.344 469.461 379.504 469.472C379.675 469.483 379.845 469.493 380.016 469.504L380.064 470.64C379.915 470.619 379.755 470.603 379.584 470.592C379.424 470.581 379.264 470.576 379.104 470.576C378.944 470.576 378.795 470.576 378.656 470.576C378.24 470.576 377.877 470.608 377.568 470.672C377.269 470.725 377.019 470.811 376.816 470.928C376.624 471.045 376.48 471.189 376.384 471.36C376.288 471.531 376.24 471.728 376.24 471.952C376.24 472.133 376.272 472.293 376.336 472.432C376.4 472.56 376.485 472.661 376.592 472.736C376.709 472.811 376.843 472.869 376.992 472.912C377.152 472.944 377.323 472.96 377.504 472.96C377.856 472.96 378.165 472.901 378.432 472.784C378.699 472.667 378.923 472.496 379.104 472.272C379.296 472.037 379.44 471.749 379.536 471.408C379.632 471.056 379.68 470.645 379.68 470.176C379.68 469.525 379.605 469.019 379.456 468.656C379.317 468.293 379.109 468.043 378.832 467.904C378.555 467.765 378.208 467.696 377.792 467.696C377.451 467.696 377.12 467.755 376.8 467.872C376.491 467.979 376.187 468.181 375.888 468.48L375.04 467.52C375.445 467.136 375.888 466.859 376.368 466.688C376.859 466.517 377.36 466.432 377.872 466.432C378.341 466.432 378.773 466.491 379.168 466.608C379.573 466.715 379.925 466.896 380.224 467.152C380.533 467.408 380.768 467.755 380.928 468.192C381.099 468.629 381.184 469.184 381.184 469.856V474H379.52V473.088C379.381 473.301 379.227 473.483 379.056 473.632C378.885 473.771 378.699 473.883 378.496 473.968C378.304 474.043 378.101 474.096 377.888 474.128C377.675 474.16 377.456 474.176 377.232 474.176ZM394.784 474.144C394.347 474.144 393.968 474.075 393.648 473.936C393.339 473.787 393.088 473.552 392.896 473.232C392.715 472.912 392.587 472.496 392.512 471.984C392.437 471.472 392.411 470.848 392.432 470.112L392.64 464.8L394.272 464.592L394.432 464.576L394.448 464.72C394.395 464.795 394.347 464.869 394.304 464.944C394.272 465.019 394.245 465.147 394.224 465.328L394.064 467.392L394.128 467.568L394.016 470.112C393.984 470.837 394.005 471.403 394.08 471.808C394.155 472.203 394.283 472.48 394.464 472.64C394.645 472.789 394.864 472.864 395.12 472.864C395.461 472.864 395.765 472.795 396.032 472.656C396.309 472.517 396.581 472.347 396.848 472.144L397.2 473.328C396.837 473.595 396.459 473.797 396.064 473.936C395.669 474.075 395.243 474.144 394.784 474.144ZM390.992 466.592H396.576L396.56 467.872H390.992V466.592ZM399.584 466.592H401.232L401.2 468.704L401.008 468.528C401.061 468.208 401.163 467.92 401.312 467.664C401.461 467.397 401.643 467.173 401.856 466.992C402.08 466.811 402.325 466.672 402.592 466.576C402.859 466.469 403.136 466.416 403.424 466.416C403.829 466.416 404.197 466.485 404.528 466.624C404.859 466.763 405.157 466.971 405.424 467.248L404.752 468.56L404.688 468.704L404.56 468.64C404.528 468.555 404.496 468.469 404.464 468.384C404.432 468.299 404.352 468.197 404.224 468.08C404.064 467.973 403.904 467.893 403.744 467.84C403.595 467.787 403.419 467.76 403.216 467.76C402.96 467.76 402.709 467.808 402.464 467.904C402.229 467.989 402.016 468.128 401.824 468.32C401.632 468.512 401.477 468.757 401.36 469.056C401.253 469.344 401.2 469.696 401.2 470.112V474.016H399.584V466.592ZM409.232 474.176C408.411 474.176 407.771 473.989 407.312 473.616C406.864 473.232 406.64 472.736 406.64 472.128C406.64 471.723 406.731 471.36 406.912 471.04C407.104 470.709 407.371 470.427 407.712 470.192C408.064 469.957 408.485 469.776 408.976 469.648C409.467 469.509 410.021 469.44 410.64 469.44C410.768 469.44 410.901 469.445 411.04 469.456C411.189 469.456 411.344 469.461 411.504 469.472C411.675 469.483 411.845 469.493 412.016 469.504L412.064 470.64C411.915 470.619 411.755 470.603 411.584 470.592C411.424 470.581 411.264 470.576 411.104 470.576C410.944 470.576 410.795 470.576 410.656 470.576C410.24 470.576 409.877 470.608 409.568 470.672C409.269 470.725 409.019 470.811 408.816 470.928C408.624 471.045 408.48 471.189 408.384 471.36C408.288 471.531 408.24 471.728 408.24 471.952C408.24 472.133 408.272 472.293 408.336 472.432C408.4 472.56 408.485 472.661 408.592 472.736C408.709 472.811 408.843 472.869 408.992 472.912C409.152 472.944 409.323 472.96 409.504 472.96C409.856 472.96 410.165 472.901 410.432 472.784C410.699 472.667 410.923 472.496 411.104 472.272C411.296 472.037 411.44 471.749 411.536 471.408C411.632 471.056 411.68 470.645 411.68 470.176C411.68 469.525 411.605 469.019 411.456 468.656C411.317 468.293 411.109 468.043 410.832 467.904C410.555 467.765 410.208 467.696 409.792 467.696C409.451 467.696 409.12 467.755 408.8 467.872C408.491 467.979 408.187 468.181 407.888 468.48L407.04 467.52C407.445 467.136 407.888 466.859 408.368 466.688C408.859 466.517 409.36 466.432 409.872 466.432C410.341 466.432 410.773 466.491 411.168 466.608C411.573 466.715 411.925 466.896 412.224 467.152C412.533 467.408 412.768 467.755 412.928 468.192C413.099 468.629 413.184 469.184 413.184 469.856V474H411.52V473.088C411.381 473.301 411.227 473.483 411.056 473.632C410.885 473.771 410.699 473.883 410.496 473.968C410.304 474.043 410.101 474.096 409.888 474.128C409.675 474.16 409.456 474.176 409.232 474.176ZM414.96 474V466.592H416.56V467.728C416.741 467.461 416.944 467.232 417.168 467.04C417.392 466.848 417.643 466.699 417.92 466.592C418.197 466.475 418.496 466.416 418.816 466.416C419.232 466.416 419.616 466.523 419.968 466.736C420.32 466.949 420.603 467.285 420.816 467.744C421.029 468.192 421.136 468.789 421.136 469.536V474H419.552V469.552C419.552 469.115 419.504 468.757 419.408 468.48C419.312 468.203 419.173 468 418.992 467.872C418.821 467.744 418.613 467.68 418.368 467.68C418.155 467.68 417.941 467.728 417.728 467.824C417.515 467.92 417.317 468.053 417.136 468.224C416.965 468.384 416.827 468.587 416.72 468.832C416.613 469.067 416.56 469.333 416.56 469.632V474H414.96ZM426.112 474.176C425.664 474.176 425.243 474.133 424.848 474.048C424.453 473.963 424.08 473.835 423.728 473.664C423.387 473.493 423.072 473.275 422.784 473.008L423.52 471.664L423.616 471.52L423.728 471.584C423.749 471.669 423.776 471.76 423.808 471.856C423.84 471.941 423.915 472.048 424.032 472.176C424.288 472.4 424.581 472.581 424.912 472.72C425.243 472.848 425.648 472.912 426.128 472.912C426.459 472.912 426.736 472.875 426.96 472.8C427.195 472.715 427.376 472.603 427.504 472.464C427.632 472.315 427.696 472.149 427.696 471.968C427.696 471.829 427.659 471.712 427.584 471.616C427.52 471.509 427.419 471.413 427.28 471.328C427.141 471.232 426.96 471.141 426.736 471.056C426.512 470.96 426.24 470.869 425.92 470.784C425.376 470.624 424.901 470.443 424.496 470.24C424.091 470.027 423.776 469.776 423.552 469.488C423.328 469.2 423.216 468.859 423.216 468.464C423.216 468.069 423.328 467.723 423.552 467.424C423.787 467.115 424.117 466.869 424.544 466.688C424.971 466.507 425.477 466.416 426.064 466.416C426.384 466.416 426.683 466.443 426.96 466.496C427.248 466.539 427.509 466.608 427.744 466.704C427.989 466.8 428.219 466.923 428.432 467.072C428.645 467.211 428.848 467.376 429.04 467.568L428.224 468.656L428.128 468.784L428.016 468.688C428.005 468.603 427.979 468.523 427.936 468.448C427.904 468.373 427.829 468.277 427.712 468.16C427.477 467.989 427.221 467.861 426.944 467.776C426.667 467.691 426.384 467.648 426.096 467.648C425.723 467.648 425.392 467.712 425.104 467.84C424.827 467.968 424.688 468.16 424.688 468.416C424.688 468.565 424.747 468.704 424.864 468.832C424.992 468.96 425.195 469.088 425.472 469.216C425.749 469.333 426.128 469.456 426.608 469.584C427.216 469.744 427.707 469.931 428.08 470.144C428.453 470.347 428.725 470.587 428.896 470.864C429.077 471.141 429.168 471.467 429.168 471.84C429.168 472.256 429.051 472.645 428.816 473.008C428.592 473.36 428.251 473.643 427.792 473.856C427.333 474.069 426.773 474.176 426.112 474.176ZM434.496 474.176C433.952 474.176 433.445 474.085 432.976 473.904C432.517 473.712 432.117 473.445 431.776 473.104C431.445 472.752 431.184 472.347 430.992 471.888C430.811 471.419 430.72 470.907 430.72 470.352C430.72 469.797 430.811 469.285 430.992 468.816C431.184 468.336 431.445 467.92 431.776 467.568C432.117 467.216 432.517 466.944 432.976 466.752C433.445 466.549 433.947 466.448 434.48 466.448C435.141 466.448 435.717 466.571 436.208 466.816C436.709 467.061 437.115 467.408 437.424 467.856L436.512 468.816L436.4 468.928L436.304 468.832C436.293 468.747 436.272 468.667 436.24 468.592C436.219 468.507 436.149 468.395 436.032 468.256C435.819 468.064 435.584 467.931 435.328 467.856C435.072 467.771 434.779 467.728 434.448 467.728C434.171 467.728 433.904 467.787 433.648 467.904C433.403 468.021 433.179 468.192 432.976 468.416C432.784 468.64 432.629 468.912 432.512 469.232C432.395 469.552 432.336 469.909 432.336 470.304C432.336 470.688 432.395 471.04 432.512 471.36C432.629 471.669 432.789 471.936 432.992 472.16C433.195 472.373 433.429 472.544 433.696 472.672C433.973 472.789 434.261 472.848 434.56 472.848C434.795 472.848 435.019 472.821 435.232 472.768C435.456 472.704 435.669 472.608 435.872 472.48C436.075 472.341 436.267 472.165 436.448 471.952L437.328 472.976C436.944 473.392 436.501 473.696 436 473.888C435.509 474.08 435.008 474.176 434.496 474.176ZM439.584 466.592H441.232L441.2 468.704L441.008 468.528C441.061 468.208 441.163 467.92 441.312 467.664C441.461 467.397 441.643 467.173 441.856 466.992C442.08 466.811 442.325 466.672 442.592 466.576C442.859 466.469 443.136 466.416 443.424 466.416C443.829 466.416 444.197 466.485 444.528 466.624C444.859 466.763 445.157 466.971 445.424 467.248L444.752 468.56L444.688 468.704L444.56 468.64C444.528 468.555 444.496 468.469 444.464 468.384C444.432 468.299 444.352 468.197 444.224 468.08C444.064 467.973 443.904 467.893 443.744 467.84C443.595 467.787 443.419 467.76 443.216 467.76C442.96 467.76 442.709 467.808 442.464 467.904C442.229 467.989 442.016 468.128 441.824 468.32C441.632 468.512 441.477 468.757 441.36 469.056C441.253 469.344 441.2 469.696 441.2 470.112V474.016H439.584V466.592ZM447.44 474V472.736H449.28V467.856H447.52V466.592H450.88V472.736H452.56V474H447.44ZM449.984 465.264C449.696 465.264 449.451 465.168 449.248 464.976C449.056 464.773 448.96 464.539 448.96 464.272C448.96 463.984 449.056 463.744 449.248 463.552C449.44 463.36 449.685 463.264 449.984 463.264C450.261 463.264 450.501 463.365 450.704 463.568C450.917 463.771 451.024 464.005 451.024 464.272C451.024 464.539 450.917 464.773 450.704 464.976C450.501 465.168 450.261 465.264 449.984 465.264ZM454.832 476.672V466.592H456.416V467.776C456.555 467.456 456.731 467.2 456.944 467.008C457.168 466.805 457.413 466.661 457.68 466.576C457.947 466.48 458.235 466.432 458.544 466.432C458.949 466.432 459.328 466.517 459.68 466.688C460.043 466.848 460.363 467.088 460.64 467.408C460.917 467.728 461.136 468.128 461.296 468.608C461.456 469.088 461.536 469.648 461.536 470.288C461.536 470.939 461.451 471.509 461.28 472C461.109 472.491 460.88 472.901 460.592 473.232C460.315 473.552 459.995 473.792 459.632 473.952C459.269 474.112 458.896 474.192 458.512 474.192C458.245 474.192 457.979 474.155 457.712 474.08C457.456 474.016 457.221 473.915 457.008 473.776C456.795 473.627 456.608 473.456 456.448 473.264V476.672H454.832ZM458.112 472.912C458.357 472.912 458.587 472.869 458.8 472.784C459.013 472.688 459.205 472.544 459.376 472.352C459.547 472.149 459.68 471.877 459.776 471.536C459.872 471.184 459.92 470.757 459.92 470.256C459.92 469.723 459.851 469.269 459.712 468.896C459.584 468.523 459.392 468.235 459.136 468.032C458.891 467.829 458.592 467.723 458.24 467.712C457.973 467.701 457.728 467.749 457.504 467.856C457.28 467.952 457.088 468.112 456.928 468.336C456.768 468.549 456.645 468.837 456.56 469.2C456.485 469.552 456.448 469.973 456.448 470.464C456.448 470.795 456.469 471.093 456.512 471.36C456.565 471.616 456.64 471.845 456.736 472.048C456.832 472.24 456.944 472.4 457.072 472.528C457.211 472.656 457.365 472.752 457.536 472.816C457.717 472.88 457.909 472.912 458.112 472.912ZM466.784 474.144C466.347 474.144 465.968 474.075 465.648 473.936C465.339 473.787 465.088 473.552 464.896 473.232C464.715 472.912 464.587 472.496 464.512 471.984C464.437 471.472 464.411 470.848 464.432 470.112L464.64 464.8L466.272 464.592L466.432 464.576L466.448 464.72C466.395 464.795 466.347 464.869 466.304 464.944C466.272 465.019 466.245 465.147 466.224 465.328L466.064 467.392L466.128 467.568L466.016 470.112C465.984 470.837 466.005 471.403 466.08 471.808C466.155 472.203 466.283 472.48 466.464 472.64C466.645 472.789 466.864 472.864 467.12 472.864C467.461 472.864 467.765 472.795 468.032 472.656C468.309 472.517 468.581 472.347 468.848 472.144L469.2 473.328C468.837 473.595 468.459 473.797 468.064 473.936C467.669 474.075 467.243 474.144 466.784 474.144ZM462.992 466.592H468.576L468.56 467.872H462.992V466.592ZM471.44 474V472.736H473.28V467.856H471.52V466.592H474.88V472.736H476.56V474H471.44ZM473.984 465.264C473.696 465.264 473.451 465.168 473.248 464.976C473.056 464.773 472.96 464.539 472.96 464.272C472.96 463.984 473.056 463.744 473.248 463.552C473.44 463.36 473.685 463.264 473.984 463.264C474.261 463.264 474.501 463.365 474.704 463.568C474.917 463.771 475.024 464.005 475.024 464.272C475.024 464.539 474.917 464.773 474.704 464.976C474.501 465.168 474.261 465.264 473.984 465.264ZM482 474.16C481.328 474.16 480.731 474 480.208 473.68C479.685 473.349 479.269 472.896 478.96 472.32C478.651 471.733 478.496 471.061 478.496 470.304C478.496 469.557 478.651 468.896 478.96 468.32C479.269 467.733 479.685 467.275 480.208 466.944C480.731 466.603 481.328 466.432 482 466.432C482.661 466.432 483.253 466.603 483.776 466.944C484.309 467.275 484.731 467.733 485.04 468.32C485.349 468.896 485.504 469.557 485.504 470.304C485.504 471.051 485.349 471.717 485.04 472.304C484.731 472.88 484.309 473.333 483.776 473.664C483.253 473.995 482.661 474.16 482 474.16ZM482 472.864C482.363 472.864 482.683 472.757 482.96 472.544C483.248 472.32 483.472 472.016 483.632 471.632C483.792 471.248 483.872 470.8 483.872 470.288C483.872 469.765 483.792 469.312 483.632 468.928C483.472 468.544 483.248 468.245 482.96 468.032C482.683 467.819 482.363 467.712 482 467.712C481.637 467.712 481.312 467.819 481.024 468.032C480.747 468.245 480.528 468.544 480.368 468.928C480.208 469.312 480.128 469.765 480.128 470.288C480.128 470.8 480.208 471.248 480.368 471.632C480.528 472.016 480.747 472.32 481.024 472.544C481.312 472.757 481.637 472.864 482 472.864ZM486.96 474V466.592H488.56V467.728C488.741 467.461 488.944 467.232 489.168 467.04C489.392 466.848 489.643 466.699 489.92 466.592C490.197 466.475 490.496 466.416 490.816 466.416C491.232 466.416 491.616 466.523 491.968 466.736C492.32 466.949 492.603 467.285 492.816 467.744C493.029 468.192 493.136 468.789 493.136 469.536V474H491.552V469.552C491.552 469.115 491.504 468.757 491.408 468.48C491.312 468.203 491.173 468 490.992 467.872C490.821 467.744 490.613 467.68 490.368 467.68C490.155 467.68 489.941 467.728 489.728 467.824C489.515 467.92 489.317 468.053 489.136 468.224C488.965 468.384 488.827 468.587 488.72 468.832C488.613 469.067 488.56 469.333 488.56 469.632V474H486.96ZM154.384 491.176C154.117 491.176 153.856 491.133 153.6 491.048C153.355 490.973 153.12 490.861 152.896 490.712C152.683 490.552 152.491 490.36 152.32 490.136L151.984 491H150.832V480.296H152.432H152.576V480.44C152.523 480.504 152.485 480.573 152.464 480.648C152.453 480.723 152.448 480.851 152.448 481.032V484.536C152.555 484.365 152.683 484.216 152.832 484.088C152.981 483.949 153.141 483.832 153.312 483.736C153.493 483.629 153.68 483.549 153.872 483.496C154.075 483.443 154.272 483.416 154.464 483.416C154.912 483.427 155.317 483.512 155.68 483.672C156.053 483.821 156.373 484.056 156.64 484.376C156.907 484.685 157.109 485.075 157.248 485.544C157.397 486.013 157.472 486.563 157.472 487.192C157.472 487.864 157.387 488.451 157.216 488.952C157.056 489.453 156.832 489.869 156.544 490.2C156.256 490.531 155.925 490.776 155.552 490.936C155.179 491.096 154.789 491.176 154.384 491.176ZM154.112 489.896C154.347 489.896 154.565 489.853 154.768 489.768C154.981 489.683 155.168 489.539 155.328 489.336C155.499 489.133 155.632 488.867 155.728 488.536C155.824 488.205 155.872 487.805 155.872 487.336C155.872 486.899 155.829 486.515 155.744 486.184C155.669 485.853 155.557 485.576 155.408 485.352C155.259 485.117 155.072 484.947 154.848 484.84C154.635 484.723 154.4 484.664 154.144 484.664C153.792 484.664 153.488 484.771 153.232 484.984C152.987 485.197 152.795 485.501 152.656 485.896C152.517 486.28 152.448 486.739 152.448 487.272C152.448 487.688 152.48 488.061 152.544 488.392C152.608 488.712 152.704 488.984 152.832 489.208C152.971 489.432 153.141 489.603 153.344 489.72C153.557 489.837 153.813 489.896 154.112 489.896ZM162 491.16C161.328 491.16 160.731 491 160.208 490.68C159.685 490.349 159.269 489.896 158.96 489.32C158.651 488.733 158.496 488.061 158.496 487.304C158.496 486.557 158.651 485.896 158.96 485.32C159.269 484.733 159.685 484.275 160.208 483.944C160.731 483.603 161.328 483.432 162 483.432C162.661 483.432 163.253 483.603 163.776 483.944C164.309 484.275 164.731 484.733 165.04 485.32C165.349 485.896 165.504 486.557 165.504 487.304C165.504 488.051 165.349 488.717 165.04 489.304C164.731 489.88 164.309 490.333 163.776 490.664C163.253 490.995 162.661 491.16 162 491.16ZM162 489.864C162.363 489.864 162.683 489.757 162.96 489.544C163.248 489.32 163.472 489.016 163.632 488.632C163.792 488.248 163.872 487.8 163.872 487.288C163.872 486.765 163.792 486.312 163.632 485.928C163.472 485.544 163.248 485.245 162.96 485.032C162.683 484.819 162.363 484.712 162 484.712C161.637 484.712 161.312 484.819 161.024 485.032C160.747 485.245 160.528 485.544 160.368 485.928C160.208 486.312 160.128 486.765 160.128 487.288C160.128 487.8 160.208 488.248 160.368 488.632C160.528 489.016 160.747 489.32 161.024 489.544C161.312 489.757 161.637 489.864 162 489.864ZM170.784 491.144C170.347 491.144 169.968 491.075 169.648 490.936C169.339 490.787 169.088 490.552 168.896 490.232C168.715 489.912 168.587 489.496 168.512 488.984C168.437 488.472 168.411 487.848 168.432 487.112L168.64 481.8L170.272 481.592L170.432 481.576L170.448 481.72C170.395 481.795 170.347 481.869 170.304 481.944C170.272 482.019 170.245 482.147 170.224 482.328L170.064 484.392L170.128 484.568L170.016 487.112C169.984 487.837 170.005 488.403 170.08 488.808C170.155 489.203 170.283 489.48 170.464 489.64C170.645 489.789 170.864 489.864 171.12 489.864C171.461 489.864 171.765 489.795 172.032 489.656C172.309 489.517 172.581 489.347 172.848 489.144L173.2 490.328C172.837 490.595 172.459 490.797 172.064 490.936C171.669 491.075 171.243 491.144 170.784 491.144ZM166.992 483.592H172.576L172.56 484.872H166.992V483.592ZM184.336 484.856H182.752V483.592H184.336V483.096C184.336 482.435 184.469 481.891 184.736 481.464C185.013 481.027 185.376 480.707 185.824 480.504C186.272 480.291 186.763 480.184 187.296 480.184C187.787 480.184 188.24 480.269 188.656 480.44C189.072 480.611 189.429 480.867 189.728 481.208L189.056 482.312L188.976 482.44L188.864 482.376C188.843 482.291 188.811 482.205 188.768 482.12C188.736 482.035 188.656 481.933 188.528 481.816C188.347 481.677 188.171 481.581 188 481.528C187.829 481.475 187.621 481.448 187.376 481.448C187.077 481.448 186.816 481.507 186.592 481.624C186.379 481.731 186.208 481.907 186.08 482.152C185.963 482.387 185.904 482.701 185.904 483.096V483.592H188.208V484.856H185.904V491H184.336V484.856ZM194 491.16C193.328 491.16 192.731 491 192.208 490.68C191.685 490.349 191.269 489.896 190.96 489.32C190.651 488.733 190.496 488.061 190.496 487.304C190.496 486.557 190.651 485.896 190.96 485.32C191.269 484.733 191.685 484.275 192.208 483.944C192.731 483.603 193.328 483.432 194 483.432C194.661 483.432 195.253 483.603 195.776 483.944C196.309 484.275 196.731 484.733 197.04 485.32C197.349 485.896 197.504 486.557 197.504 487.304C197.504 488.051 197.349 488.717 197.04 489.304C196.731 489.88 196.309 490.333 195.776 490.664C195.253 490.995 194.661 491.16 194 491.16ZM194 489.864C194.363 489.864 194.683 489.757 194.96 489.544C195.248 489.32 195.472 489.016 195.632 488.632C195.792 488.248 195.872 487.8 195.872 487.288C195.872 486.765 195.792 486.312 195.632 485.928C195.472 485.544 195.248 485.245 194.96 485.032C194.683 484.819 194.363 484.712 194 484.712C193.637 484.712 193.312 484.819 193.024 485.032C192.747 485.245 192.528 485.544 192.368 485.928C192.208 486.312 192.128 486.765 192.128 487.288C192.128 487.8 192.208 488.248 192.368 488.632C192.528 489.016 192.747 489.32 193.024 489.544C193.312 489.757 193.637 489.864 194 489.864ZM199.584 483.592H201.232L201.2 485.704L201.008 485.528C201.061 485.208 201.163 484.92 201.312 484.664C201.461 484.397 201.643 484.173 201.856 483.992C202.08 483.811 202.325 483.672 202.592 483.576C202.859 483.469 203.136 483.416 203.424 483.416C203.829 483.416 204.197 483.485 204.528 483.624C204.859 483.763 205.157 483.971 205.424 484.248L204.752 485.56L204.688 485.704L204.56 485.64C204.528 485.555 204.496 485.469 204.464 485.384C204.432 485.299 204.352 485.197 204.224 485.08C204.064 484.973 203.904 484.893 203.744 484.84C203.595 484.787 203.419 484.76 203.216 484.76C202.96 484.76 202.709 484.808 202.464 484.904C202.229 484.989 202.016 485.128 201.824 485.32C201.632 485.512 201.477 485.757 201.36 486.056C201.253 486.344 201.2 486.696 201.2 487.112V491.016H199.584V483.592ZM214.736 491.016V481.032H217.216C217.803 481.032 218.293 481.085 218.688 481.192C219.093 481.299 219.435 481.453 219.712 481.656C220 481.859 220.251 482.109 220.464 482.408C220.688 482.707 220.875 483.043 221.024 483.416C221.184 483.789 221.301 484.2 221.376 484.648C221.451 485.085 221.488 485.56 221.488 486.072C221.477 486.84 221.381 487.528 221.2 488.136C221.029 488.744 220.763 489.261 220.4 489.688C220.048 490.115 219.595 490.445 219.04 490.68C218.485 490.904 217.813 491.016 217.024 491.016H214.736ZM216.256 489.768H216.992C217.707 489.768 218.277 489.624 218.704 489.336C219.141 489.037 219.456 488.616 219.648 488.072C219.851 487.517 219.952 486.867 219.952 486.12C219.952 485.331 219.861 484.653 219.68 484.088C219.499 483.523 219.205 483.085 218.8 482.776C218.405 482.456 217.856 482.296 217.152 482.296H216.256V489.768ZM223.44 491V489.736H225.28V484.856H223.52V483.592H226.88V489.736H228.56V491H223.44ZM225.984 482.264C225.696 482.264 225.451 482.168 225.248 481.976C225.056 481.773 224.96 481.539 224.96 481.272C224.96 480.984 225.056 480.744 225.248 480.552C225.44 480.36 225.685 480.264 225.984 480.264C226.261 480.264 226.501 480.365 226.704 480.568C226.917 480.771 227.024 481.005 227.024 481.272C227.024 481.539 226.917 481.773 226.704 481.976C226.501 482.168 226.261 482.264 225.984 482.264ZM234.112 491.176C233.664 491.176 233.243 491.133 232.848 491.048C232.453 490.963 232.08 490.835 231.728 490.664C231.387 490.493 231.072 490.275 230.784 490.008L231.52 488.664L231.616 488.52L231.728 488.584C231.749 488.669 231.776 488.76 231.808 488.856C231.84 488.941 231.915 489.048 232.032 489.176C232.288 489.4 232.581 489.581 232.912 489.72C233.243 489.848 233.648 489.912 234.128 489.912C234.459 489.912 234.736 489.875 234.96 489.8C235.195 489.715 235.376 489.603 235.504 489.464C235.632 489.315 235.696 489.149 235.696 488.968C235.696 488.829 235.659 488.712 235.584 488.616C235.52 488.509 235.419 488.413 235.28 488.328C235.141 488.232 234.96 488.141 234.736 488.056C234.512 487.96 234.24 487.869 233.92 487.784C233.376 487.624 232.901 487.443 232.496 487.24C232.091 487.027 231.776 486.776 231.552 486.488C231.328 486.2 231.216 485.859 231.216 485.464C231.216 485.069 231.328 484.723 231.552 484.424C231.787 484.115 232.117 483.869 232.544 483.688C232.971 483.507 233.477 483.416 234.064 483.416C234.384 483.416 234.683 483.443 234.96 483.496C235.248 483.539 235.509 483.608 235.744 483.704C235.989 483.8 236.219 483.923 236.432 484.072C236.645 484.211 236.848 484.376 237.04 484.568L236.224 485.656L236.128 485.784L236.016 485.688C236.005 485.603 235.979 485.523 235.936 485.448C235.904 485.373 235.829 485.277 235.712 485.16C235.477 484.989 235.221 484.861 234.944 484.776C234.667 484.691 234.384 484.648 234.096 484.648C233.723 484.648 233.392 484.712 233.104 484.84C232.827 484.968 232.688 485.16 232.688 485.416C232.688 485.565 232.747 485.704 232.864 485.832C232.992 485.96 233.195 486.088 233.472 486.216C233.749 486.333 234.128 486.456 234.608 486.584C235.216 486.744 235.707 486.931 236.08 487.144C236.453 487.347 236.725 487.587 236.896 487.864C237.077 488.141 237.168 488.467 237.168 488.84C237.168 489.256 237.051 489.645 236.816 490.008C236.592 490.36 236.251 490.643 235.792 490.856C235.333 491.069 234.773 491.176 234.112 491.176ZM242.496 491.176C241.952 491.176 241.445 491.085 240.976 490.904C240.517 490.712 240.117 490.445 239.776 490.104C239.445 489.752 239.184 489.347 238.992 488.888C238.811 488.419 238.72 487.907 238.72 487.352C238.72 486.797 238.811 486.285 238.992 485.816C239.184 485.336 239.445 484.92 239.776 484.568C240.117 484.216 240.517 483.944 240.976 483.752C241.445 483.549 241.947 483.448 242.48 483.448C243.141 483.448 243.717 483.571 244.208 483.816C244.709 484.061 245.115 484.408 245.424 484.856L244.512 485.816L244.4 485.928L244.304 485.832C244.293 485.747 244.272 485.667 244.24 485.592C244.219 485.507 244.149 485.395 244.032 485.256C243.819 485.064 243.584 484.931 243.328 484.856C243.072 484.771 242.779 484.728 242.448 484.728C242.171 484.728 241.904 484.787 241.648 484.904C241.403 485.021 241.179 485.192 240.976 485.416C240.784 485.64 240.629 485.912 240.512 486.232C240.395 486.552 240.336 486.909 240.336 487.304C240.336 487.688 240.395 488.04 240.512 488.36C240.629 488.669 240.789 488.936 240.992 489.16C241.195 489.373 241.429 489.544 241.696 489.672C241.973 489.789 242.261 489.848 242.56 489.848C242.795 489.848 243.019 489.821 243.232 489.768C243.456 489.704 243.669 489.608 243.872 489.48C244.075 489.341 244.267 489.165 244.448 488.952L245.328 489.976C244.944 490.392 244.501 490.696 244 490.888C243.509 491.08 243.008 491.176 242.496 491.176ZM250 491.16C249.328 491.16 248.731 491 248.208 490.68C247.685 490.349 247.269 489.896 246.96 489.32C246.651 488.733 246.496 488.061 246.496 487.304C246.496 486.557 246.651 485.896 246.96 485.32C247.269 484.733 247.685 484.275 248.208 483.944C248.731 483.603 249.328 483.432 250 483.432C250.661 483.432 251.253 483.603 251.776 483.944C252.309 484.275 252.731 484.733 253.04 485.32C253.349 485.896 253.504 486.557 253.504 487.304C253.504 488.051 253.349 488.717 253.04 489.304C252.731 489.88 252.309 490.333 251.776 490.664C251.253 490.995 250.661 491.16 250 491.16ZM250 489.864C250.363 489.864 250.683 489.757 250.96 489.544C251.248 489.32 251.472 489.016 251.632 488.632C251.792 488.248 251.872 487.8 251.872 487.288C251.872 486.765 251.792 486.312 251.632 485.928C251.472 485.544 251.248 485.245 250.96 485.032C250.683 484.819 250.363 484.712 250 484.712C249.637 484.712 249.312 484.819 249.024 485.032C248.747 485.245 248.528 485.544 248.368 485.928C248.208 486.312 248.128 486.765 248.128 487.288C248.128 487.8 248.208 488.248 248.368 488.632C248.528 489.016 248.747 489.32 249.024 489.544C249.312 489.757 249.637 489.864 250 489.864ZM255.584 483.592H257.232L257.2 485.704L257.008 485.528C257.061 485.208 257.163 484.92 257.312 484.664C257.461 484.397 257.643 484.173 257.856 483.992C258.08 483.811 258.325 483.672 258.592 483.576C258.859 483.469 259.136 483.416 259.424 483.416C259.829 483.416 260.197 483.485 260.528 483.624C260.859 483.763 261.157 483.971 261.424 484.248L260.752 485.56L260.688 485.704L260.56 485.64C260.528 485.555 260.496 485.469 260.464 485.384C260.432 485.299 260.352 485.197 260.224 485.08C260.064 484.973 259.904 484.893 259.744 484.84C259.595 484.787 259.419 484.76 259.216 484.76C258.96 484.76 258.709 484.808 258.464 484.904C258.229 484.989 258.016 485.128 257.824 485.32C257.632 485.512 257.477 485.757 257.36 486.056C257.253 486.344 257.2 486.696 257.2 487.112V491.016H255.584V483.592ZM265.648 491.176C265.253 491.176 264.869 491.096 264.496 490.936C264.133 490.765 263.808 490.52 263.52 490.2C263.232 489.88 263.003 489.475 262.832 488.984C262.672 488.483 262.592 487.907 262.592 487.256C262.592 486.595 262.672 486.024 262.832 485.544C263.003 485.064 263.232 484.669 263.52 484.36C263.808 484.04 264.139 483.805 264.512 483.656C264.885 483.496 265.275 483.416 265.68 483.416C265.968 483.416 266.229 483.453 266.464 483.528C266.709 483.603 266.928 483.715 267.12 483.864C267.312 484.013 267.467 484.2 267.584 484.424V480.296H269.136H269.28V480.44C269.227 480.504 269.189 480.573 269.168 480.648C269.147 480.723 269.141 480.851 269.152 481.032V489.96C269.152 490.131 269.157 490.307 269.168 490.488C269.189 490.659 269.237 490.829 269.312 491H267.744C267.691 490.883 267.653 490.776 267.632 490.68C267.611 490.584 267.6 490.488 267.6 490.392C267.6 490.296 267.6 490.195 267.6 490.088C267.451 490.312 267.28 490.509 267.088 490.68C266.896 490.84 266.677 490.963 266.432 491.048C266.187 491.133 265.925 491.176 265.648 491.176ZM265.92 489.864C266.208 489.864 266.453 489.805 266.656 489.688C266.859 489.571 267.024 489.4 267.152 489.176C267.28 488.952 267.376 488.68 267.44 488.36C267.504 488.04 267.536 487.677 267.536 487.272C267.536 486.728 267.477 486.264 267.36 485.88C267.243 485.485 267.056 485.187 266.8 484.984C266.555 484.771 266.24 484.664 265.856 484.664C265.579 484.664 265.333 484.723 265.12 484.84C264.907 484.957 264.725 485.128 264.576 485.352C264.437 485.565 264.331 485.827 264.256 486.136C264.181 486.445 264.144 486.792 264.144 487.176C264.144 487.72 264.219 488.195 264.368 488.6C264.528 489.005 264.741 489.32 265.008 489.544C265.275 489.757 265.579 489.864 265.92 489.864ZM273.28 487.736L272.848 481.624C272.837 481.315 272.875 481.064 272.96 480.872C273.045 480.68 273.168 480.536 273.328 480.44C273.488 480.344 273.664 480.296 273.856 480.296C274.048 480.296 274.219 480.344 274.368 480.44C274.528 480.525 274.651 480.675 274.736 480.888C274.832 481.091 274.875 481.368 274.864 481.72L274.4 487.736H273.28ZM273.824 491.176C273.504 491.176 273.227 491.069 272.992 490.856C272.768 490.632 272.656 490.365 272.656 490.056C272.656 489.757 272.768 489.496 272.992 489.272C273.227 489.037 273.504 488.92 273.824 488.92C274.155 488.92 274.432 489.037 274.656 489.272C274.891 489.507 275.008 489.768 275.008 490.056C275.008 490.355 274.891 490.616 274.656 490.84C274.421 491.064 274.144 491.176 273.824 491.176Z" fill="#F1EFDC"/>
<path d="M216.41 443V436.77H218.27C218.637 436.77 218.953 436.807 219.22 436.88C219.493 436.953 219.717 437.06 219.89 437.2C220.07 437.34 220.203 437.507 220.29 437.7C220.377 437.887 220.42 438.093 220.42 438.32C220.42 438.5 220.383 438.683 220.31 438.87C220.243 439.05 220.143 439.213 220.01 439.36C219.883 439.5 219.72 439.607 219.52 439.68C219.693 439.747 219.85 439.833 219.99 439.94C220.13 440.047 220.25 440.17 220.35 440.31C220.45 440.443 220.527 440.587 220.58 440.74C220.64 440.893 220.67 441.053 220.67 441.22C220.67 441.487 220.62 441.73 220.52 441.95C220.42 442.17 220.27 442.36 220.07 442.52C219.87 442.673 219.62 442.793 219.32 442.88C219.02 442.96 218.667 443 218.26 443H216.41ZM217.39 442.17H218.37C218.63 442.17 218.853 442.137 219.04 442.07C219.227 441.997 219.37 441.887 219.47 441.74C219.577 441.593 219.63 441.407 219.63 441.18C219.63 440.967 219.583 440.78 219.49 440.62C219.403 440.453 219.257 440.323 219.05 440.23C218.843 440.137 218.563 440.09 218.21 440.09H217.39V442.17ZM217.39 439.29H218.17C218.49 439.29 218.74 439.253 218.92 439.18C219.107 439.107 219.237 439.003 219.31 438.87C219.39 438.737 219.43 438.587 219.43 438.42C219.43 438.293 219.407 438.18 219.36 438.08C219.32 437.98 219.253 437.893 219.16 437.82C219.067 437.74 218.947 437.68 218.8 437.64C218.653 437.6 218.48 437.58 218.28 437.58H217.39V439.29ZM223.51 443.11C223.017 443.11 222.597 442.987 222.25 442.74C221.91 442.493 221.653 442.13 221.48 441.65C221.307 441.17 221.22 440.587 221.22 439.9C221.22 439.227 221.307 438.653 221.48 438.18C221.653 437.7 221.91 437.333 222.25 437.08C222.597 436.827 223.017 436.7 223.51 436.7C224.01 436.7 224.43 436.827 224.77 437.08C225.11 437.333 225.367 437.7 225.54 438.18C225.72 438.653 225.81 439.227 225.81 439.9C225.81 440.587 225.72 441.17 225.54 441.65C225.367 442.13 225.11 442.493 224.77 442.74C224.43 442.987 224.01 443.11 223.51 443.11ZM223.51 442.3C223.783 442.3 224.017 442.21 224.21 442.03C224.403 441.85 224.553 441.583 224.66 441.23C224.767 440.87 224.82 440.423 224.82 439.89C224.82 439.39 224.767 438.963 224.66 438.61C224.553 438.257 224.403 437.987 224.21 437.8C224.017 437.607 223.783 437.51 223.51 437.51C223.237 437.51 223 437.607 222.8 437.8C222.607 437.987 222.46 438.257 222.36 438.61C222.26 438.963 222.21 439.39 222.21 439.89C222.21 440.423 222.26 440.87 222.36 441.23C222.46 441.583 222.607 441.85 222.8 442.03C223 442.21 223.237 442.3 223.51 442.3ZM227.96 443V437.61H226.26V436.76H230.71V437.61H228.93V443H227.96Z" fill="#F1EFDC"/>
<path d="M139.736 444.016V434.032H142.216C142.803 434.032 143.293 434.085 143.688 434.192C144.093 434.299 144.435 434.453 144.712 434.656C145 434.859 145.251 435.109 145.464 435.408C145.688 435.707 145.875 436.043 146.024 436.416C146.184 436.789 146.301 437.2 146.376 437.648C146.451 438.085 146.488 438.56 146.488 439.072C146.477 439.84 146.381 440.528 146.2 441.136C146.029 441.744 145.763 442.261 145.4 442.688C145.048 443.115 144.595 443.445 144.04 443.68C143.485 443.904 142.813 444.016 142.024 444.016H139.736ZM141.256 442.768H141.992C142.707 442.768 143.277 442.624 143.704 442.336C144.141 442.037 144.456 441.616 144.648 441.072C144.851 440.517 144.952 439.867 144.952 439.12C144.952 438.331 144.861 437.653 144.68 437.088C144.499 436.523 144.205 436.085 143.8 435.776C143.405 435.456 142.856 435.296 142.152 435.296H141.256V442.768ZM148.44 444V442.736H150.28V437.856H148.52V436.592H151.88V442.736H153.56V444H148.44ZM150.984 435.264C150.696 435.264 150.451 435.168 150.248 434.976C150.056 434.773 149.96 434.539 149.96 434.272C149.96 433.984 150.056 433.744 150.248 433.552C150.44 433.36 150.685 433.264 150.984 433.264C151.261 433.264 151.501 433.365 151.704 433.568C151.917 433.771 152.024 434.005 152.024 434.272C152.024 434.539 151.917 434.773 151.704 434.976C151.501 435.168 151.261 435.264 150.984 435.264ZM159.112 444.176C158.664 444.176 158.243 444.133 157.848 444.048C157.453 443.963 157.08 443.835 156.728 443.664C156.387 443.493 156.072 443.275 155.784 443.008L156.52 441.664L156.616 441.52L156.728 441.584C156.749 441.669 156.776 441.76 156.808 441.856C156.84 441.941 156.915 442.048 157.032 442.176C157.288 442.4 157.581 442.581 157.912 442.72C158.243 442.848 158.648 442.912 159.128 442.912C159.459 442.912 159.736 442.875 159.96 442.8C160.195 442.715 160.376 442.603 160.504 442.464C160.632 442.315 160.696 442.149 160.696 441.968C160.696 441.829 160.659 441.712 160.584 441.616C160.52 441.509 160.419 441.413 160.28 441.328C160.141 441.232 159.96 441.141 159.736 441.056C159.512 440.96 159.24 440.869 158.92 440.784C158.376 440.624 157.901 440.443 157.496 440.24C157.091 440.027 156.776 439.776 156.552 439.488C156.328 439.2 156.216 438.859 156.216 438.464C156.216 438.069 156.328 437.723 156.552 437.424C156.787 437.115 157.117 436.869 157.544 436.688C157.971 436.507 158.477 436.416 159.064 436.416C159.384 436.416 159.683 436.443 159.96 436.496C160.248 436.539 160.509 436.608 160.744 436.704C160.989 436.8 161.219 436.923 161.432 437.072C161.645 437.211 161.848 437.376 162.04 437.568L161.224 438.656L161.128 438.784L161.016 438.688C161.005 438.603 160.979 438.523 160.936 438.448C160.904 438.373 160.829 438.277 160.712 438.16C160.477 437.989 160.221 437.861 159.944 437.776C159.667 437.691 159.384 437.648 159.096 437.648C158.723 437.648 158.392 437.712 158.104 437.84C157.827 437.968 157.688 438.16 157.688 438.416C157.688 438.565 157.747 438.704 157.864 438.832C157.992 438.96 158.195 439.088 158.472 439.216C158.749 439.333 159.128 439.456 159.608 439.584C160.216 439.744 160.707 439.931 161.08 440.144C161.453 440.347 161.725 440.587 161.896 440.864C162.077 441.141 162.168 441.467 162.168 441.84C162.168 442.256 162.051 442.645 161.816 443.008C161.592 443.36 161.251 443.643 160.792 443.856C160.333 444.069 159.773 444.176 159.112 444.176ZM167.496 444.176C166.952 444.176 166.445 444.085 165.976 443.904C165.517 443.712 165.117 443.445 164.776 443.104C164.445 442.752 164.184 442.347 163.992 441.888C163.811 441.419 163.72 440.907 163.72 440.352C163.72 439.797 163.811 439.285 163.992 438.816C164.184 438.336 164.445 437.92 164.776 437.568C165.117 437.216 165.517 436.944 165.976 436.752C166.445 436.549 166.947 436.448 167.48 436.448C168.141 436.448 168.717 436.571 169.208 436.816C169.709 437.061 170.115 437.408 170.424 437.856L169.512 438.816L169.4 438.928L169.304 438.832C169.293 438.747 169.272 438.667 169.24 438.592C169.219 438.507 169.149 438.395 169.032 438.256C168.819 438.064 168.584 437.931 168.328 437.856C168.072 437.771 167.779 437.728 167.448 437.728C167.171 437.728 166.904 437.787 166.648 437.904C166.403 438.021 166.179 438.192 165.976 438.416C165.784 438.64 165.629 438.912 165.512 439.232C165.395 439.552 165.336 439.909 165.336 440.304C165.336 440.688 165.395 441.04 165.512 441.36C165.629 441.669 165.789 441.936 165.992 442.16C166.195 442.373 166.429 442.544 166.696 442.672C166.973 442.789 167.261 442.848 167.56 442.848C167.795 442.848 168.019 442.821 168.232 442.768C168.456 442.704 168.669 442.608 168.872 442.48C169.075 442.341 169.267 442.165 169.448 441.952L170.328 442.976C169.944 443.392 169.501 443.696 169 443.888C168.509 444.08 168.008 444.176 167.496 444.176ZM172.584 436.592H174.232L174.2 438.704L174.008 438.528C174.061 438.208 174.163 437.92 174.312 437.664C174.461 437.397 174.643 437.173 174.856 436.992C175.08 436.811 175.325 436.672 175.592 436.576C175.859 436.469 176.136 436.416 176.424 436.416C176.829 436.416 177.197 436.485 177.528 436.624C177.859 436.763 178.157 436.971 178.424 437.248L177.752 438.56L177.688 438.704L177.56 438.64C177.528 438.555 177.496 438.469 177.464 438.384C177.432 438.299 177.352 438.197 177.224 438.08C177.064 437.973 176.904 437.893 176.744 437.84C176.595 437.787 176.419 437.76 176.216 437.76C175.96 437.76 175.709 437.808 175.464 437.904C175.229 437.989 175.016 438.128 174.824 438.32C174.632 438.512 174.477 438.757 174.36 439.056C174.253 439.344 174.2 439.696 174.2 440.112V444.016H172.584V436.592ZM180.44 444V442.736H182.28V437.856H180.52V436.592H183.88V442.736H185.56V444H180.44ZM182.984 435.264C182.696 435.264 182.451 435.168 182.248 434.976C182.056 434.773 181.96 434.539 181.96 434.272C181.96 433.984 182.056 433.744 182.248 433.552C182.44 433.36 182.685 433.264 182.984 433.264C183.261 433.264 183.501 433.365 183.704 433.568C183.917 433.771 184.024 434.005 184.024 434.272C184.024 434.539 183.917 434.773 183.704 434.976C183.501 435.168 183.261 435.264 182.984 435.264ZM191.384 444.176C191.117 444.176 190.856 444.133 190.6 444.048C190.355 443.973 190.12 443.861 189.896 443.712C189.683 443.552 189.491 443.36 189.32 443.136L188.984 444H187.832V433.296H189.432H189.576V433.44C189.523 433.504 189.485 433.573 189.464 433.648C189.453 433.723 189.448 433.851 189.448 434.032V437.536C189.555 437.365 189.683 437.216 189.832 437.088C189.981 436.949 190.141 436.832 190.312 436.736C190.493 436.629 190.68 436.549 190.872 436.496C191.075 436.443 191.272 436.416 191.464 436.416C191.912 436.427 192.317 436.512 192.68 436.672C193.053 436.821 193.373 437.056 193.64 437.376C193.907 437.685 194.109 438.075 194.248 438.544C194.397 439.013 194.472 439.563 194.472 440.192C194.472 440.864 194.387 441.451 194.216 441.952C194.056 442.453 193.832 442.869 193.544 443.2C193.256 443.531 192.925 443.776 192.552 443.936C192.179 444.096 191.789 444.176 191.384 444.176ZM191.112 442.896C191.347 442.896 191.565 442.853 191.768 442.768C191.981 442.683 192.168 442.539 192.328 442.336C192.499 442.133 192.632 441.867 192.728 441.536C192.824 441.205 192.872 440.805 192.872 440.336C192.872 439.899 192.829 439.515 192.744 439.184C192.669 438.853 192.557 438.576 192.408 438.352C192.259 438.117 192.072 437.947 191.848 437.84C191.635 437.723 191.4 437.664 191.144 437.664C190.792 437.664 190.488 437.771 190.232 437.984C189.987 438.197 189.795 438.501 189.656 438.896C189.517 439.28 189.448 439.739 189.448 440.272C189.448 440.688 189.48 441.061 189.544 441.392C189.608 441.712 189.704 441.984 189.832 442.208C189.971 442.432 190.141 442.603 190.344 442.72C190.557 442.837 190.813 442.896 191.112 442.896ZM199.336 444.176C198.803 444.176 198.312 444.091 197.864 443.92C197.416 443.749 197.027 443.504 196.696 443.184C196.376 442.853 196.125 442.448 195.944 441.968C195.763 441.488 195.672 440.944 195.672 440.336C195.672 439.717 195.763 439.168 195.944 438.688C196.125 438.197 196.371 437.787 196.68 437.456C197 437.125 197.368 436.869 197.784 436.688C198.211 436.507 198.664 436.416 199.144 436.416C199.56 436.416 199.955 436.491 200.328 436.64C200.712 436.789 201.043 437.013 201.32 437.312C201.608 437.6 201.832 437.968 201.992 438.416C202.163 438.864 202.248 439.387 202.248 439.984C202.248 440.091 202.248 440.213 202.248 440.352C202.248 440.48 202.243 440.592 202.232 440.688H197.208C197.229 441.072 197.304 441.408 197.432 441.696C197.56 441.973 197.72 442.203 197.912 442.384C198.115 442.565 198.344 442.699 198.6 442.784C198.856 442.869 199.123 442.912 199.4 442.912C199.645 442.912 199.869 442.891 200.072 442.848C200.285 442.795 200.488 442.715 200.68 442.608C200.872 442.501 201.048 442.357 201.208 442.176L202.04 442.992C201.816 443.259 201.565 443.483 201.288 443.664C201.011 443.835 200.707 443.963 200.376 444.048C200.056 444.133 199.709 444.176 199.336 444.176ZM197.24 439.488H200.696C200.696 439.189 200.659 438.928 200.584 438.704C200.509 438.48 200.397 438.288 200.248 438.128C200.109 437.968 199.939 437.851 199.736 437.776C199.533 437.691 199.309 437.648 199.064 437.648C198.829 437.648 198.611 437.685 198.408 437.76C198.216 437.835 198.04 437.947 197.88 438.096C197.72 438.245 197.581 438.437 197.464 438.672C197.357 438.896 197.283 439.168 197.24 439.488Z" fill="#F1EFDC"/>
<circle cx="105.5" cy="451.5" r="21.5" fill="url(#paint1_linear_31_121)"/>
<path d="M101.104 458.024V443.048H104.824C105.704 443.048 106.44 443.128 107.032 443.288C107.64 443.448 108.152 443.68 108.568 443.984C109 444.288 109.376 444.664 109.696 445.112C110.032 445.56 110.312 446.064 110.536 446.624C110.776 447.184 110.952 447.8 111.064 448.472C111.176 449.128 111.232 449.84 111.232 450.608C111.216 451.76 111.072 452.792 110.8 453.704C110.544 454.616 110.144 455.392 109.6 456.032C109.072 456.672 108.392 457.168 107.56 457.52C106.728 457.856 105.72 458.024 104.536 458.024H101.104ZM103.384 456.152H104.488C105.56 456.152 106.416 455.936 107.056 455.504C107.712 455.056 108.184 454.424 108.472 453.608C108.776 452.776 108.928 451.8 108.928 450.68C108.928 449.496 108.792 448.48 108.52 447.632C108.248 446.784 107.808 446.128 107.2 445.664C106.608 445.184 105.784 444.944 104.728 444.944H103.384V456.152Z" fill="#F1EFDC"/>
<path d="M43.5 412.5V431.5V431.5C43.5 441.993 52.0057 450.5 62.4992 450.5C65.9734 450.5 69.6354 450.5 74 450.5" stroke="#520D3A" stroke-width="3"/>
<rect x="78" y="363" width="268" height="46" rx="8" fill="#520D3A"/>
<path fill-rule="evenodd" clip-rule="evenodd" d="M106 399C113.18 399 119 393.18 119 386C119 378.82 113.18 373 106 373C98.8203 373 93 378.82 93 386C93 393.18 98.8203 399 106 399ZM104.242 380.208L112.394 384.737C113.384 385.288 113.384 386.712 112.394 387.263L104.242 391.792C103.086 392.433 101.667 391.598 101.667 390.276V381.724C101.667 380.402 103.086 379.567 104.242 380.208Z" fill="white"/>
<line x1="140.5" y1="379" x2="140.5" y2="395" stroke="white" stroke-width="3"/>
<line x1="146.5" y1="379" x2="146.5" y2="395" stroke="white" stroke-width="3"/>
<line x1="152.5" y1="376" x2="152.5" y2="398" stroke="white" stroke-width="3"/>
<line x1="158.5" y1="376" x2="158.5" y2="398" stroke="white" stroke-width="3"/>
<line x1="164.5" y1="373" x2="164.5" y2="400" stroke="white" stroke-width="3"/>
<line x1="170.5" y1="373" x2="170.5" y2="400" stroke="white" stroke-width="3"/>
<line x1="188.5" y1="373" x2="188.5" y2="400" stroke="white" stroke-width="3"/>
<line x1="194.5" y1="373" x2="194.5" y2="400" stroke="white" stroke-width="3"/>
<line x1="188.5" y1="373" x2="188.5" y2="400" stroke="white" stroke-width="3"/>
<line x1="194.5" y1="373" x2="194.5" y2="400" stroke="white" stroke-width="3"/>
<line x1="200.5" y1="376" x2="200.5" y2="397" stroke="white" stroke-width="3"/>
<line x1="206.5" y1="376" x2="206.5" y2="397" stroke="white" stroke-width="3"/>
<line x1="212.5" y1="376" x2="212.5" y2="397" stroke="white" stroke-width="3"/>
<line x1="218.5" y1="376" x2="218.5" y2="397" stroke="white" stroke-width="3"/>
<line x1="224.5" y1="376" x2="224.5" y2="397" stroke="white" stroke-width="3"/>
<line x1="230.5" y1="376" x2="230.5" y2="397" stroke="white" stroke-width="3"/>
<line x1="236.5" y1="370" x2="236.5" y2="400" stroke="white" stroke-width="3"/>
<line x1="242.5" y1="370" x2="242.5" y2="400" stroke="white" stroke-width="3"/>
<line x1="248.5" y1="370" x2="248.5" y2="400" stroke="white" stroke-width="3"/>
<line x1="254.5" y1="370" x2="254.5" y2="400" stroke="white" stroke-width="3"/>
<line x1="260.5" y1="373" x2="260.5" y2="397" stroke="white" stroke-width="3"/>
<line x1="266.5" y1="373" x2="266.5" y2="397" stroke="white" stroke-width="3"/>
<line x1="272.5" y1="376" x2="272.5" y2="394" stroke="white" stroke-width="3"/>
<line x1="278.5" y1="376" x2="278.5" y2="394" stroke="white" stroke-width="3"/>
<line x1="284.5" y1="377" x2="284.5" y2="392" stroke="white" stroke-width="3"/>
<line x1="290.5" y1="377" x2="290.5" y2="392" stroke="white" stroke-width="3"/>
<line x1="296.5" y1="374" x2="296.5" y2="396" stroke="white" stroke-width="3"/>
<line x1="302.5" y1="374" x2="302.5" y2="396" stroke="white" stroke-width="3"/>
<line x1="308.5" y1="372" x2="308.5" y2="398" stroke="white" stroke-width="3"/>
<line x1="314.5" y1="372" x2="314.5" y2="398" stroke="white" stroke-width="3"/>
<line x1="320.5" y1="376" x2="320.5" y2="394" stroke="white" stroke-width="3"/>
<line x1="326.5" y1="376" x2="326.5" y2="394" stroke="white" stroke-width="3"/>
<line x1="320.5" y1="376" x2="320.5" y2="394" stroke="white" stroke-width="3"/>
<line x1="326.5" y1="376" x2="326.5" y2="394" stroke="white" stroke-width="3"/>
<line x1="176.5" y1="370" x2="176.5" y2="401" stroke="white" stroke-width="3"/>
<line x1="182.5" y1="370" x2="182.5" y2="401" stroke="white" stroke-width="3"/>
<circle cx="44.5" cy="384.5" r="21.5" fill="#520D3A"/>
<path d="M33.7178 387.155C32.7374 385.521 32.7374 383.479 33.7178 381.845V381.845C34.0169 381.347 34.5126 380.997 35.0828 380.883L37.4107 380.418C37.5494 380.39 37.6744 380.316 37.7649 380.207L41.6708 375.52C42.8534 374.101 43.4447 373.391 43.9723 373.582C44.5 373.773 44.5 374.697 44.5 376.544L44.5 392.456C44.5 394.303 44.5 395.227 43.9723 395.418C43.4447 395.609 42.8534 394.899 41.6708 393.48L37.7649 388.793C37.6744 388.684 37.5494 388.61 37.4107 388.582L35.0828 388.117C34.5126 388.003 34.0169 387.653 33.7178 387.155V387.155Z" fill="white"/>
<path d="M47.9864 379.639C49.269 380.921 49.9928 382.659 49.9999 384.473C50.0071 386.287 49.297 388.03 48.0245 389.323" stroke="white" stroke-width="2" stroke-linecap="round"/>
<path d="M53.6532 376.722C55.7055 378.774 56.8635 381.554 56.8749 384.457C56.8863 387.359 55.7503 390.148 53.7142 392.217" stroke="white" stroke-width="2" stroke-linecap="round"/>
<rect x="78" y="179" width="481" height="92" rx="8" fill="#520D3A"/>
<circle cx="44.5" cy="200.5" r="21.5" fill="#520D3A"/>
<rect x="78" y="179" width="481" height="92" rx="8" fill="#520D3A"/>
<circle cx="44.5" cy="200.5" r="21.5" fill="#520D3A"/>
<rect x="78" y="108" width="429" height="48" rx="8" fill="#520D3A"/>
<circle cx="44.5" cy="129.5" r="21.5" fill="#520D3A"/>
<rect x="78" y="24" width="481" height="61" rx="8" fill="#520D3A"/>
<circle cx="44.5" cy="45.5" r="21.5" fill="#520D3A"/>
<rect x="78" y="294" width="363" height="46" rx="8" fill="#520D3A"/>
<circle cx="44.5" cy="315.5" r="21.5" fill="#520D3A"/>
<defs>
<linearGradient id="paint0_linear_31_121" x1="139" y1="452" x2="507.758" y2="495.583" gradientUnits="userSpaceOnUse">
<stop stop-color="#F0E476"/>
<stop offset="1" stop-color="#FF71CD"/>
<stop offset="1" stop-color="#FF71CD"/>
</linearGradient>
<linearGradient id="paint1_linear_31_121" x1="84" y1="430" x2="127" y2="473" gradientUnits="userSpaceOnUse">
<stop stop-color="#F0E476"/>
<stop offset="0.931922" stop-color="#FF71CD"/>
</linearGradient>
</defs>
</svg>
