<svg width="67" height="67" viewBox="0 0 67 67" fill="none" xmlns="http://www.w3.org/2000/svg">
<path d="M33.5 30.7083C38.1254 30.7083 41.875 26.9587 41.875 22.3333C41.875 17.7079 38.1254 13.9583 33.5 13.9583C28.8746 13.9583 25.125 17.7079 25.125 22.3333C25.125 26.9587 28.8746 30.7083 33.5 30.7083Z" stroke="white" stroke-width="4" stroke-linecap="round"/>
<path d="M42.6229 22.3333C43.3636 21.0509 44.583 20.1151 46.0134 19.7319C47.4436 19.3486 48.9675 19.5493 50.25 20.2897C51.5325 21.0301 52.4683 22.2496 52.8516 23.6799C53.2346 25.1102 53.0342 26.6342 52.2938 27.9166C51.5532 29.1991 50.3338 30.1349 48.9033 30.5182C47.4732 30.9012 45.9492 30.7008 44.6667 29.9604C43.3842 29.2198 42.4484 28.0004 42.0651 26.5701C41.6821 25.1397 41.8826 23.6157 42.6229 22.3333Z" stroke="white" stroke-width="4"/>
<path d="M14.7064 22.3333C15.4468 21.0509 16.6663 20.1151 18.0966 19.7319C19.527 19.3486 21.051 19.5493 22.3334 20.2897C23.6158 21.0301 24.5516 22.2496 24.9348 23.6799C25.3181 25.1102 25.1174 26.6342 24.377 27.9166C23.6366 29.1991 22.4171 30.1349 20.9868 30.5182C19.5565 30.9012 18.0325 30.7008 16.7501 29.9604C15.4676 29.2198 14.5319 28.0004 14.1486 26.5701C13.7654 25.1397 13.966 23.6157 14.7064 22.3333Z" stroke="white" stroke-width="4"/>
<path d="M47.1278 50.25L44.3911 50.8011L44.8423 53.0417H47.1278V50.25ZM41.2631 41.0668L39.5747 38.8438L36.3458 41.2963L39.7888 43.4375L41.2631 41.0668ZM55.4626 47.4584H47.1278V53.0417H55.4626V47.4584ZM55.2127 48.1239C55.1932 48.0686 55.1751 47.9636 55.1982 47.8363C55.2203 47.7155 55.27 47.6239 55.3172 47.5653C55.4073 47.4533 55.4816 47.4584 55.4626 47.4584V53.0417C58.6619 53.0417 61.8114 50.025 60.475 46.2577L55.2127 48.1239ZM47.4583 41.875C52.0411 41.875 54.1659 45.1723 55.2127 48.1239L60.475 46.2577C59.1766 42.5975 55.6896 36.2917 47.4583 36.2917V41.875ZM42.9517 43.2901C44.0251 42.4747 45.4539 41.875 47.4583 41.875V36.2917C44.2147 36.2917 41.6036 37.3028 39.5747 38.8438L42.9517 43.2901ZM39.7888 43.4375C42.6896 45.2418 43.9048 48.3863 44.3911 50.8011L49.8645 49.6989C49.2562 46.6778 47.5627 41.6975 42.7376 38.6964L39.7888 43.4375Z" fill="white"/>
<path d="M25.7368 41.0668L27.2112 43.4375L30.6541 41.2963L27.4254 38.8438L25.7368 41.0668ZM19.872 50.25V53.0417H22.1575L22.6087 50.8011L19.872 50.25ZM19.5416 41.875C21.5461 41.875 22.975 42.4747 24.0483 43.2901L27.4254 38.8438C25.3964 37.3025 22.7852 36.2917 19.5416 36.2917V41.875ZM11.7871 48.1239C12.8341 45.1723 14.9589 41.875 19.5416 41.875V36.2917C11.3104 36.2917 7.82326 42.5972 6.52499 46.2577L11.7871 48.1239ZM11.5373 47.4584C11.5184 47.4584 11.5927 47.4533 11.6827 47.5653C11.7299 47.6239 11.7797 47.7155 11.8017 47.8363C11.8249 47.9636 11.8068 48.0686 11.7871 48.1239L6.52499 46.2577C5.18865 50.025 8.33801 53.0417 11.5373 53.0417V47.4584ZM19.872 47.4584H11.5373V53.0417H19.872V47.4584ZM22.6087 50.8011C23.0951 48.3863 24.3102 45.2418 27.2112 43.4375L24.2625 38.6964C19.4371 41.6972 17.7438 46.6775 17.1353 49.6989L22.6087 50.8011Z" fill="white"/>
<path d="M33.5 39.0833C43.4704 39.0833 46.319 46.2054 47.1328 50.2748C47.4351 51.7865 46.2085 53.0416 44.6666 53.0416H22.3333C20.7915 53.0416 19.5648 51.7865 19.8671 50.2748C20.6809 46.2054 23.5294 39.0833 33.5 39.0833Z" stroke="white" stroke-width="4" stroke-linecap="round"/>
</svg>
