<svg width="67" height="67" viewBox="0 0 67 67" fill="none" xmlns="http://www.w3.org/2000/svg">
<path d="M11.1666 19.5416C11.1666 24.167 14.9162 27.9166 19.5416 27.9166C24.167 27.9166 27.9166 24.167 27.9166 19.5416C27.9166 14.9162 24.167 11.1666 19.5416 11.1666C14.9162 11.1666 11.1666 14.9162 11.1666 19.5416Z" stroke="white" stroke-width="4" stroke-linecap="round"/>
<path d="M26.5209 13.9584H50.25C53.3337 13.9584 55.8334 16.4581 55.8334 19.5417C55.8334 22.6253 53.3337 25.125 50.25 25.125H26.5209" stroke="white" stroke-width="4" stroke-linecap="round"/>
<path d="M55.8334 47.4584C55.8334 52.0838 52.0838 55.8334 47.4584 55.8334C42.833 55.8334 39.0834 52.0838 39.0834 47.4584C39.0834 42.833 42.833 39.0834 47.4584 39.0834C52.0838 39.0834 55.8334 42.833 55.8334 47.4584Z" stroke="white" stroke-width="4" stroke-linecap="round"/>
<path d="M40.4791 41.875H16.75C13.6664 41.875 11.1666 44.3747 11.1666 47.4583C11.1666 50.542 13.6664 53.0417 16.75 53.0417H40.4791" stroke="white" stroke-width="4" stroke-linecap="round"/>
</svg>
