<svg width="67" height="67" viewBox="0 0 67 67" fill="none" xmlns="http://www.w3.org/2000/svg">
<path d="M30.1598 37.5107L20.1858 36.604C18.658 36.4651 17.8941 36.3957 17.6515 35.8731C17.4088 35.3505 17.8487 34.7221 18.7285 33.4653L34.8529 10.4304C35.434 9.60017 35.7246 9.18503 35.9753 9.27331C36.2259 9.36158 36.1922 9.8672 36.1248 10.8784L35.0257 27.3644C34.9644 28.2846 34.9337 28.7447 35.1981 29.0544C35.4625 29.364 35.9217 29.4058 36.8402 29.4893L46.8142 30.396C48.342 30.5349 49.1059 30.6043 49.3485 31.1269C49.5912 31.6495 49.1513 32.2779 48.2715 33.5347L32.1471 56.5696C31.566 57.3998 31.2754 57.815 31.0247 57.7267C30.7741 57.6384 30.8078 57.1328 30.8752 56.1216L31.9743 39.6356C32.0356 38.7154 32.0663 38.2553 31.8019 37.9456C31.5375 37.636 31.0783 37.5942 30.1598 37.5107Z" fill="white"/>
<path d="M51.6459 11.1667L47.4584 16.75H53.0417L48.8542 22.3334" stroke="white" stroke-opacity="0.25" stroke-width="4" stroke-linecap="round" stroke-linejoin="round"/>
<path d="M18.1459 44.6667L13.9584 50.25H19.5417L15.3542 55.8334" stroke="white" stroke-opacity="0.25" stroke-width="4" stroke-linecap="round" stroke-linejoin="round"/>
</svg>
