<svg width="67" height="67" viewBox="0 0 67 67" fill="none" xmlns="http://www.w3.org/2000/svg">
<path d="M33.5 61.4166V53.0416" stroke="white" stroke-width="4" stroke-linecap="round" stroke-linejoin="round"/>
<path fill-rule="evenodd" clip-rule="evenodd" d="M16.9816 22.3333H25.125C26.6668 22.3333 27.9167 23.5832 27.9167 25.125C27.9167 26.6668 26.6668 27.9167 25.125 27.9167H16.75V33.5H25.125C26.6668 33.5 27.9167 34.7498 27.9167 36.2917C27.9167 37.8335 26.6668 39.0833 25.125 39.0833H16.9816C18.3107 47.0052 25.2004 53.0417 33.5 53.0417C41.7996 53.0417 48.6895 47.0052 50.0183 39.0833H44.6667C43.1248 39.0833 41.875 37.8335 41.875 36.2917C41.875 34.7498 43.1248 33.5 44.6667 33.5H50.25V27.9167H44.6667C43.1248 27.9167 41.875 26.6668 41.875 25.125C41.875 23.5832 43.1248 22.3333 44.6667 22.3333H50.0183C48.6895 14.4114 41.7996 8.375 33.5 8.375C25.2004 8.375 18.3107 14.4114 16.9816 22.3333Z" fill="white"/>
</svg>
