<svg width="24" height="24" viewBox="0 0 24 24" fill="none" xmlns="http://www.w3.org/2000/svg">
<path fill-rule="evenodd" clip-rule="evenodd" d="M10.621 3.03773L6.9314 2.45795C3.71084 1.95186 2.10055 1.69881 1.05027 2.59693C1.19209e-07 3.49505 0 5.1251 0 8.38521V11.3691H5.9194L3.21913 7.99383L4.78087 6.74445L8.7809 11.7444L9.2806 12.3691L8.7809 12.9938L4.78087 17.9938L3.21913 16.7444L5.9194 13.3691H0V16.3522C0 19.6123 1.19209e-07 21.2424 1.05027 22.1405C2.10055 23.0386 3.71084 22.7856 6.9314 22.2795L10.621 21.6997C12.2337 21.4462 13.04 21.3195 13.52 20.7582C14 20.197 14 19.3807 14 17.7482V6.98924C14 5.35672 14 4.54046 13.52 3.97917C13.04 3.41788 12.2337 3.29116 10.621 3.03773Z" fill="white"/>
</svg>
